<?xml version="1.0" encoding="UTF-8" standalone="no"?>
<!-- Created with matplotlib (http://matplotlib.sourceforge.net/) -->
<svg
   xmlns:dc="http://purl.org/dc/elements/1.1/"
   xmlns:cc="http://creativecommons.org/ns#"
   xmlns:rdf="http://www.w3.org/1999/02/22-rdf-syntax-ns#"
   xmlns:svg="http://www.w3.org/2000/svg"
   xmlns="http://www.w3.org/2000/svg"
   xmlns:xlink="http://www.w3.org/1999/xlink"
   xmlns:sodipodi="http://sodipodi.sourceforge.net/DTD/sodipodi-0.dtd"
   xmlns:inkscape="http://www.inkscape.org/namespaces/inkscape"
   width="576pt"
   height="432pt"
   viewBox="0 0 576 432"
   version="1.1"
   id="svg1"
   sodipodi:version="0.32"
   inkscape:version="0.46"
   sodipodi:docname="ingenieria.svg"
   inkscape:output_extension="org.inkscape.output.svg.inkscape"
   inkscape:export-filename="/home/guillem/5.png"
   inkscape:export-xdpi="90"
   inkscape:export-ydpi="90">
  <metadata
     id="metadata368">
    <rdf:RDF>
      <cc:Work
         rdf:about="">
        <dc:format>image/svg+xml</dc:format>
        <dc:type
           rdf:resource="http://purl.org/dc/dcmitype/StillImage" />
      </cc:Work>
    </rdf:RDF>
  </metadata>
  <defs
     id="defs366">
    <marker
       inkscape:stockid="Arrow1Lend"
       orient="auto"
       refY="0.0"
       refX="0.0"
       id="Arrow1Lend"
       style="overflow:visible;">
      <path
         id="path3525"
         d="M 0.0,0.0 L 5.0,-5.0 L -12.5,0.0 L 5.0,5.0 L 0.0,0.0 z "
         style="fill-rule:evenodd;stroke:#000000;stroke-width:1.0pt;marker-start:none;"
         transform="scale(0.8) rotate(180) translate(12.5,0)" />
    </marker>
    <inkscape:perspective
       sodipodi:type="inkscape:persp3d"
       inkscape:vp_x="0 : 270 : 1"
       inkscape:vp_y="0 : 1000 : 0"
       inkscape:vp_z="720 : 270 : 1"
       inkscape:persp3d-origin="360 : 180 : 1"
       id="perspective370" />
    <defs
       id="defs336">
      <path
         d="M 44.390625,-34.1875 C 46.505208,-33.46875 48.5625,-31.9375 50.5625,-29.59375 C 52.5625,-27.25 54.572917,-24.026042 56.59375,-19.921875 L 66.609375,3.5527137e-15 L 56,3.5527137e-15 L 46.6875,-18.703125 C 44.270833,-23.588542 41.932292,-26.828125 39.671875,-28.421875 C 37.411458,-30.015625 34.328125,-30.8125 30.421875,-30.8125 L 19.671875,-30.8125 L 19.671875,7.1054274e-15 L 9.8125,7.1054274e-15 L 9.8125,-72.90625 L 32.078125,-72.90625 C 40.411458,-72.90625 46.630208,-71.161458 50.734375,-67.671875 C 54.838542,-64.192708 56.890625,-58.9375 56.890625,-51.90625 C 56.890625,-47.3125 55.822917,-43.5 53.6875,-40.46875 C 51.552083,-37.447917 48.453125,-35.354167 44.390625,-34.1875 M 19.671875,-64.796875 L 19.671875,-38.921875 L 32.078125,-38.921875 C 36.828125,-38.921875 40.416667,-40.020833 42.84375,-42.21875 C 45.270833,-44.416667 46.484375,-47.645833 46.484375,-51.90625 C 46.484375,-56.166667 45.270833,-59.380208 42.84375,-61.546875 C 40.416667,-63.713542 36.828125,-64.796875 32.078125,-64.796875 L 19.671875,-64.796875 z"
         id="c_4c6532c564269b2c70b230c2e45c01e4" />
      <path
         d="M 8.5,-21.578125 L 8.5,-54.6875 L 17.484375,-54.6875 L 17.484375,-21.921875 C 17.484375,-16.744792 18.489583,-12.859375 20.5,-10.265625 C 22.520833,-7.6822917 25.552083,-6.390625 29.59375,-6.390625 C 34.4375,-6.390625 38.265625,-7.9375 41.078125,-11.03125 C 43.901042,-14.125 45.3125,-18.34375 45.3125,-23.6875 L 45.3125,-54.6875 L 54.296875,-54.6875 L 54.296875,0 L 45.3125,0 L 45.3125,-8.40625 C 43.135417,-5.0833333 40.604167,-2.6145833 37.71875,-1 C 34.84375,0.61458333 31.5,1.421875 27.6875,1.421875 C 21.40625,1.421875 16.635417,-0.53125 13.375,-4.4375 C 10.125,-8.34375 8.5,-14.057292 8.5,-21.578125"
         id="c_c438d87e693443c2861ebd6359e6491e" />
      <path
         d="M 9.421875,-75.984375 L 18.40625,-75.984375 L 18.40625,0 L 9.421875,0 L 9.421875,-75.984375 z"
         id="c_5099edb83619131346ae654950954dea" />
      <path
         d="M 18.3125,-70.21875 L 18.3125,-54.6875 L 36.8125,-54.6875 L 36.8125,-47.703125 L 18.3125,-47.703125 L 18.3125,-18.015625 C 18.3125,-13.557292 18.921875,-10.692708 20.140625,-9.421875 C 21.359375,-8.1510417 23.84375,-7.515625 27.59375,-7.515625 L 36.8125,-7.515625 L 36.8125,0 L 27.59375,0 C 20.65625,0 15.869792,-1.2916667 13.234375,-3.875 C 10.598958,-6.46875 9.28125,-11.182292 9.28125,-18.015625 L 9.28125,-47.703125 L 2.6875,-47.703125 L 2.6875,-54.6875 L 9.28125,-54.6875 L 9.28125,-70.21875 L 18.3125,-70.21875 z"
         id="c_0f8c41144cfbf448378cb6fd1cc8e549" />
      <path
         d="M 45.40625,-46.390625 L 45.40625,-75.984375 L 54.390625,-75.984375 L 54.390625,0 L 45.40625,0 L 45.40625,-8.203125 C 43.520833,-4.953125 41.135417,-2.5364583 38.25,-0.953125 C 35.375,0.63020833 31.916667,1.421875 27.875,1.421875 C 21.270833,1.421875 15.890625,-1.2135417 11.734375,-6.484375 C 7.5885417,-11.765625 5.515625,-18.703125 5.515625,-27.296875 C 5.515625,-35.890625 7.5885417,-42.822917 11.734375,-48.09375 C 15.890625,-53.364583 21.270833,-56 27.875,-56 C 31.916667,-56 35.375,-55.208333 38.25,-53.625 C 41.135417,-52.052083 43.520833,-49.640625 45.40625,-46.390625 M 14.796875,-27.296875 C 14.796875,-20.692708 16.15625,-15.510417 18.875,-11.75 C 21.59375,-7.9895833 25.328125,-6.109375 30.078125,-6.109375 C 34.828125,-6.109375 38.567708,-7.9895833 41.296875,-11.75 C 44.036458,-15.510417 45.40625,-20.692708 45.40625,-27.296875 C 45.40625,-33.901042 44.036458,-39.083333 41.296875,-42.84375 C 38.567708,-46.604167 34.828125,-48.484375 30.078125,-48.484375 C 25.328125,-48.484375 21.59375,-46.604167 18.875,-42.84375 C 16.15625,-39.083333 14.796875,-33.901042 14.796875,-27.296875"
         id="c_d821beae607506e87470f334d9ff47af" />
    </defs>
    <defs
       id="defs151">
      <path
         d="M -0.296875,-72.90625 L 61.375,-72.90625 L 61.375,-64.59375 L 35.5,-64.59375 L 35.5,-1.4210855e-14 L 25.59375,-1.4210855e-14 L 25.59375,-64.59375 L -0.296875,-64.59375 L -0.296875,-72.90625 z"
         id="c_9e4b30cbdf32072672ded72e9074c4c9" />
      <path
         d="M 9.421875,-54.6875 L 18.40625,-54.6875 L 18.40625,0 L 9.421875,0 L 9.421875,-54.6875 z M 9.421875,-75.984375 L 18.40625,-75.984375 L 18.40625,-64.59375 L 9.421875,-64.59375 L 9.421875,-75.984375 z"
         id="c_6a63bda47b2f3da1cec6aadd80692cfe" />
      <path
         d="M 56.203125,-29.59375 L 56.203125,-25.203125 L 14.890625,-25.203125 C 15.286458,-19.015625 17.151042,-14.302083 20.484375,-11.0625 C 23.817708,-7.8229167 28.463542,-6.203125 34.421875,-6.203125 C 37.869792,-6.203125 41.213542,-6.625 44.453125,-7.46875 C 47.692708,-8.3125 50.911458,-9.5833333 54.109375,-11.28125 L 54.109375,-2.78125 C 50.880208,-1.4166667 47.572917,-0.375 44.1875,0.34375 C 40.802083,1.0625 37.369792,1.421875 33.890625,1.421875 C 25.161458,1.421875 18.25,-1.1145833 13.15625,-6.1875 C 8.0625,-11.270833 5.515625,-18.145833 5.515625,-26.8125 C 5.515625,-35.760417 7.9322917,-42.859375 12.765625,-48.109375 C 17.598958,-53.369792 24.119792,-56 32.328125,-56 C 39.682292,-56 45.5,-53.630208 49.78125,-48.890625 C 54.0625,-44.161458 56.203125,-37.729167 56.203125,-29.59375 M 47.21875,-32.234375 C 47.15625,-37.140625 45.78125,-41.057292 43.09375,-43.984375 C 40.40625,-46.921875 36.848958,-48.390625 32.421875,-48.390625 C 27.411458,-48.390625 23.401042,-46.973958 20.390625,-44.140625 C 17.380208,-41.307292 15.645833,-37.317708 15.1875,-32.171875 L 47.21875,-32.234375 z"
         id="c_0bce5afba2dc6b9024b26277c38ad8e8" />
      <path
         d="M 52,-44.1875 C 54.25,-48.229167 56.9375,-51.208333 60.0625,-53.125 C 63.1875,-55.041667 66.864583,-56 71.09375,-56 C 76.791667,-56 81.1875,-54.005208 84.28125,-50.015625 C 87.375,-46.036458 88.921875,-40.369792 88.921875,-33.015625 L 88.921875,0 L 79.890625,0 L 79.890625,-32.71875 C 79.890625,-37.958333 78.958333,-41.84375 77.09375,-44.375 C 75.239583,-46.916667 72.411458,-48.1875 68.609375,-48.1875 C 63.953125,-48.1875 60.270833,-46.640625 57.5625,-43.546875 C 54.864583,-40.463542 53.515625,-36.25 53.515625,-30.90625 L 53.515625,-7.1054274e-15 L 44.484375,-7.1054274e-15 L 44.484375,-32.71875 C 44.484375,-37.989583 43.557292,-41.885417 41.703125,-44.40625 C 39.848958,-46.927083 36.984375,-48.1875 33.109375,-48.1875 C 28.515625,-48.1875 24.864583,-46.635417 22.15625,-43.53125 C 19.458333,-40.427083 18.109375,-36.21875 18.109375,-30.90625 L 18.109375,-1.4210855e-14 L 9.078125,-1.4210855e-14 L 9.078125,-54.6875 L 18.109375,-54.6875 L 18.109375,-46.1875 C 20.161458,-49.541667 22.619792,-52.015625 25.484375,-53.609375 C 28.348958,-55.203125 31.75,-56 35.6875,-56 C 39.666667,-56 43.046875,-54.989583 45.828125,-52.96875 C 48.609375,-50.958333 50.666667,-48.03125 52,-44.1875"
         id="c_4653c6dfde66c7610eae0911760d3490" />
      <path
         d="M 18.109375,-8.203125 L 18.109375,20.796875 L 9.078125,20.796875 L 9.078125,-54.6875 L 18.109375,-54.6875 L 18.109375,-46.390625 C 20.005208,-49.640625 22.390625,-52.052083 25.265625,-53.625 C 28.151042,-55.208333 31.59375,-56 35.59375,-56 C 42.239583,-56 47.635417,-53.364583 51.78125,-48.09375 C 55.9375,-42.822917 58.015625,-35.890625 58.015625,-27.296875 C 58.015625,-18.703125 55.9375,-11.765625 51.78125,-6.484375 C 47.635417,-1.2135417 42.239583,1.421875 35.59375,1.421875 C 31.59375,1.421875 28.151042,0.63020833 25.265625,-0.953125 C 22.390625,-2.5364583 20.005208,-4.953125 18.109375,-8.203125 M 48.6875,-27.296875 C 48.6875,-33.901042 47.328125,-39.083333 44.609375,-42.84375 C 41.890625,-46.604167 38.15625,-48.484375 33.40625,-48.484375 C 28.645833,-48.484375 24.90625,-46.604167 22.1875,-42.84375 C 19.46875,-39.083333 18.109375,-33.901042 18.109375,-27.296875 C 18.109375,-20.692708 19.46875,-15.510417 22.1875,-11.75 C 24.90625,-7.9895833 28.645833,-6.109375 33.40625,-6.109375 C 38.15625,-6.109375 41.890625,-7.9895833 44.609375,-11.75 C 47.328125,-15.510417 48.6875,-20.692708 48.6875,-27.296875"
         id="c_f15a64fcd463ef4629c48bab42cde24c" />
      <path
         d="M 30.609375,-48.390625 C 25.796875,-48.390625 21.989583,-46.510417 19.1875,-42.75 C 16.385417,-38.989583 14.984375,-33.838542 14.984375,-27.296875 C 14.984375,-20.755208 16.375,-15.604167 19.15625,-11.84375 C 21.947917,-8.0833333 25.765625,-6.203125 30.609375,-6.203125 C 35.401042,-6.203125 39.192708,-8.0885417 41.984375,-11.859375 C 44.786458,-15.640625 46.1875,-20.786458 46.1875,-27.296875 C 46.1875,-33.776042 44.786458,-38.911458 41.984375,-42.703125 C 39.192708,-46.494792 35.401042,-48.390625 30.609375,-48.390625 M 30.609375,-56 C 38.421875,-56 44.557292,-53.458333 49.015625,-48.375 C 53.484375,-43.302083 55.71875,-36.276042 55.71875,-27.296875 C 55.71875,-18.348958 53.484375,-11.322917 49.015625,-6.21875 C 44.557292,-1.125 38.421875,1.421875 30.609375,1.421875 C 22.765625,1.421875 16.619792,-1.125 12.171875,-6.21875 C 7.734375,-11.322917 5.515625,-18.348958 5.515625,-27.296875 C 5.515625,-36.276042 7.734375,-43.302083 12.171875,-48.375 C 16.619792,-53.458333 22.765625,-56 30.609375,-56"
         id="c_f05dd90d41f04bb96ef1ca503cc2044b" />
      <path
         d=""
         id="c_d41d8cd98f00b204e9800998ecf8427e" />
      <path
         d="M 8.59375,-75.984375 L 29.296875,-75.984375 L 29.296875,-69 L 17.578125,-69 L 17.578125,6.203125 L 29.296875,6.203125 L 29.296875,13.1875 L 8.59375,13.1875 L 8.59375,-75.984375 z"
         id="c_1a1d9ef1e4ddee695bd67a282879f099" />
      <path
         d="M 44.28125,-53.078125 L 44.28125,-44.578125 C 41.75,-45.880208 39.114583,-46.854167 36.375,-47.5 C 33.645833,-48.15625 30.8125,-48.484375 27.875,-48.484375 C 23.416667,-48.484375 20.072917,-47.802083 17.84375,-46.4375 C 15.614583,-45.072917 14.5,-43.020833 14.5,-40.28125 C 14.5,-38.197917 15.296875,-36.5625 16.890625,-35.375 C 18.484375,-34.1875 21.692708,-33.057292 26.515625,-31.984375 L 29.59375,-31.296875 C 35.96875,-29.932292 40.5,-28.005208 43.1875,-25.515625 C 45.875,-23.026042 47.21875,-19.552083 47.21875,-15.09375 C 47.21875,-10.010417 45.208333,-5.984375 41.1875,-3.015625 C 37.166667,-0.057291667 31.640625,1.421875 24.609375,1.421875 C 21.682292,1.421875 18.630208,1.1354167 15.453125,0.5625 C 12.276042,-0.010416667 8.9322917,-0.86458333 5.421875,-2 L 5.421875,-11.28125 C 8.7447917,-9.5520833 12.015625,-8.2552083 15.234375,-7.390625 C 18.453125,-6.5364583 21.645833,-6.109375 24.8125,-6.109375 C 29.041667,-6.109375 32.291667,-6.8333333 34.5625,-8.28125 C 36.84375,-9.7291667 37.984375,-11.770833 37.984375,-14.40625 C 37.984375,-16.84375 37.161458,-18.713542 35.515625,-20.015625 C 33.880208,-21.317708 30.276042,-22.572917 24.703125,-23.78125 L 21.578125,-24.515625 C 16.015625,-25.682292 11.994792,-27.479167 9.515625,-29.90625 C 7.046875,-32.333333 5.8125,-35.661458 5.8125,-39.890625 C 5.8125,-45.036458 7.6354167,-49.005208 11.28125,-51.796875 C 14.927083,-54.598958 20.104167,-56 26.8125,-56 C 30.125,-56 33.244792,-55.755208 36.171875,-55.265625 C 39.109375,-54.786458 41.8125,-54.057292 44.28125,-53.078125"
         id="c_8e0810ad13fe20a2a87a2619799b154d" />
      <path
         d="M 11.71875,-12.40625 L 22.015625,-12.40625 L 22.015625,-4 L 14.015625,11.625 L 7.71875,11.625 L 11.71875,-4 L 11.71875,-12.40625 z"
         id="c_83c92fcf7184248154f741f54a0382f5" />
      <path
         d="M 34.28125,-27.484375 C 27.020833,-27.484375 21.989583,-26.65625 19.1875,-25 C 16.385417,-23.34375 14.984375,-20.510417 14.984375,-16.5 C 14.984375,-13.3125 16.036458,-10.78125 18.140625,-8.90625 C 20.244792,-7.0416667 23.098958,-6.109375 26.703125,-6.109375 C 31.692708,-6.109375 35.692708,-7.875 38.703125,-11.40625 C 41.713542,-14.9375 43.21875,-19.630208 43.21875,-25.484375 L 43.21875,-27.484375 L 34.28125,-27.484375 z M 52.203125,-31.203125 L 52.203125,0 L 43.21875,0 L 43.21875,-8.296875 C 41.166667,-4.984375 38.609375,-2.5364583 35.546875,-0.953125 C 32.484375,0.63020833 28.739583,1.421875 24.3125,1.421875 C 18.71875,1.421875 14.265625,-0.15104167 10.953125,-3.296875 C 7.6510417,-6.4427083 6,-10.651042 6,-15.921875 C 6,-22.067708 8.0572917,-26.703125 12.171875,-29.828125 C 16.296875,-32.953125 22.442708,-34.515625 30.609375,-34.515625 L 43.21875,-34.515625 L 43.21875,-35.40625 C 43.21875,-39.541667 41.859375,-42.739583 39.140625,-45 C 36.421875,-47.260417 32.604167,-48.390625 27.6875,-48.390625 C 24.5625,-48.390625 21.515625,-48.015625 18.546875,-47.265625 C 15.588542,-46.515625 12.744792,-45.390625 10.015625,-43.890625 L 10.015625,-52.203125 C 13.296875,-53.473958 16.484375,-54.421875 19.578125,-55.046875 C 22.671875,-55.682292 25.682292,-56 28.609375,-56 C 36.526042,-56 42.4375,-53.947917 46.34375,-49.84375 C 50.25,-45.75 52.203125,-39.536458 52.203125,-31.203125"
         id="c_01d93a582460e35a7945ca50d148ffeb" />
      <path
         d="M 54.890625,-33.015625 L 54.890625,0 L 45.90625,0 L 45.90625,-32.71875 C 45.90625,-37.895833 44.895833,-41.765625 42.875,-44.328125 C 40.854167,-46.901042 37.828125,-48.1875 33.796875,-48.1875 C 28.942708,-48.1875 25.114583,-46.640625 22.3125,-43.546875 C 19.510417,-40.463542 18.109375,-36.25 18.109375,-30.90625 L 18.109375,-7.1054274e-15 L 9.078125,-7.1054274e-15 L 9.078125,-54.6875 L 18.109375,-54.6875 L 18.109375,-46.1875 C 20.265625,-49.479167 22.796875,-51.9375 25.703125,-53.5625 C 28.619792,-55.1875 31.984375,-56 35.796875,-56 C 42.078125,-56 46.828125,-54.057292 50.046875,-50.171875 C 53.276042,-46.286458 54.890625,-40.567708 54.890625,-33.015625 M 32.1875,-66.890625 L 29.390625,-69.578125 C 28.682292,-70.234375 28.057292,-70.713542 27.515625,-71.015625 C 26.984375,-71.328125 26.505208,-71.484375 26.078125,-71.484375 C 24.838542,-71.484375 23.927083,-70.890625 23.34375,-69.703125 C 22.760417,-68.515625 22.432292,-66.588542 22.359375,-63.921875 L 16.265625,-63.921875 C 16.328125,-68.317708 17.1875,-71.708333 18.84375,-74.09375 C 20.510417,-76.489583 22.822917,-77.6875 25.78125,-77.6875 C 27.020833,-77.6875 28.161458,-77.458333 29.203125,-77 C 30.244792,-76.541667 31.369792,-75.776042 32.578125,-74.703125 L 35.359375,-72.015625 C 36.067708,-71.369792 36.692708,-70.890625 37.234375,-70.578125 C 37.776042,-70.276042 38.255208,-70.125 38.671875,-70.125 C 39.911458,-70.125 40.822917,-70.71875 41.40625,-71.90625 C 41.989583,-73.09375 42.317708,-75.020833 42.390625,-77.6875 L 48.484375,-77.6875 C 48.421875,-73.291667 47.557292,-69.895833 45.890625,-67.5 C 44.234375,-65.114583 41.927083,-63.921875 38.96875,-63.921875 C 37.729167,-63.921875 36.588542,-64.145833 35.546875,-64.59375 C 34.505208,-65.052083 33.385417,-65.817708 32.1875,-66.890625"
         id="c_a7004dba24182736d44842db8efdc880" />
      <path
         d="M 10.6875,-12.40625 L 21,-12.40625 L 21,0 L 10.6875,0 L 10.6875,-12.40625 z"
         id="c_ed3e21196fb739f392806f09ca0594ef" />
      <path
         d="M 30.421875,-75.984375 L 30.421875,13.1875 L 9.71875,13.1875 L 9.71875,6.203125 L 21.390625,6.203125 L 21.390625,-69 L 9.71875,-69 L 9.71875,-75.984375 L 30.421875,-75.984375 z"
         id="c_5bcf09947f6bf611091602c6fea1d302" />
    </defs>
  </defs>
  <sodipodi:namedview
     inkscape:window-height="968"
     inkscape:window-width="1280"
     inkscape:pageshadow="2"
     inkscape:pageopacity="0.0"
     guidetolerance="10.0"
     gridtolerance="10.0"
     objecttolerance="10.0"
     borderopacity="1.0"
     bordercolor="#666666"
     pagecolor="#ffffff"
     id="base"
     showgrid="false"
     inkscape:zoom="1"
     inkscape:cx="360"
     inkscape:cy="270"
     inkscape:window-x="0"
     inkscape:window-y="0"
     inkscape:current-layer="svg1" />
  <path
     style="fill:#ffffff"
     d="M 72,388.8 L 518.4,388.8 L 518.4,43.2 L 72,43.2 L 72,388.8"
     id="path7" />
  <g
     id="line2d1">
    <defs
       id="defs10">
      <clipPath
         id="p50431ccdcb28178602d99d9270004dde">
        <rect
           x="72"
           y="43.200001"
           width="446.39999"
           height="345.60001"
           id="rect13" />
      </clipPath>
    </defs>
    <path
       style="opacity:1;fill:none;stroke:#0000ff;stroke-width:1;stroke-linecap:square;stroke-linejoin:miter"
       clip-path="url(#p50431ccdcb28178602d99d9270004dde)"
       d="M 72,388.8 L 76.509091,345.9823 L 81.018182,312.60472 L 85.527273,285.85532 L 90.036364,263.93806 L 94.545455,245.65207 L 99.054545,230.16393 L 103.56364,216.87716 L 108.07273,205.35355 L 112.58182,195.264 L 117.09091,186.35649 L 121.6,178.43478 L 126.10909,171.34382 L 130.61818,164.95943 L 135.12727,159.18102 L 139.63636,153.92621 L 144.14545,149.12694 L 148.65454,144.72641 L 153.16364,140.67692 L 157.67273,136.93808 L 162.18182,133.47546 L 166.69091,130.25954 L 171.2,127.26487 L 175.70909,124.46936 L 180.21818,121.85379 L 184.72727,119.40134 L 189.23636,117.09719 L 193.74545,114.9283 L 198.25454,112.8831 L 202.76364,110.95129 L 207.27273,109.1237 L 211.78182,107.39212 L 216.29091,105.74918 L 220.8,104.18823 L 225.30909,102.7033 L 229.81818,101.28896 L 234.32727,99.940299 L 238.83636,98.652836 L 243.34545,97.422504 L 247.85455,96.245581 L 252.36364,95.118665 L 256.87273,94.038633 L 261.38182,93.00262 L 265.89091,92.007989 L 270.4,91.052308 L 274.90909,90.133333 L 279.41818,89.248991 L 283.92727,88.397358 L 288.43636,87.576654 L 292.94545,86.785223 L 297.45454,86.021527 L 301.96364,85.284133 L 306.47273,84.571705 L 310.98182,83.882996 L 315.49091,83.216842 L 320,82.572152 L 324.50909,81.947905 L 329.01818,81.343144 L 333.52727,80.75697 L 338.03636,80.188541 L 342.54546,79.637061 L 347.05455,79.101784 L 351.56364,78.582006 L 356.07273,78.077064 L 360.58182,77.586332 L 365.09091,77.109217 L 369.6,76.645161 L 374.10909,76.193635 L 378.61818,75.754139 L 383.12727,75.326197 L 387.63636,74.909361 L 392.14546,74.503202 L 396.65455,74.107317 L 401.16364,73.72132 L 405.67273,73.344846 L 410.18182,72.977546 L 414.69091,72.619089 L 419.2,72.269159 L 423.70909,71.927456 L 428.21818,71.593693 L 432.72727,71.267596 L 437.23636,70.948905 L 441.74545,70.63737 L 446.25455,70.332752 L 450.76364,70.034824 L 455.27273,69.743367 L 459.78182,69.458173 L 464.29091,69.179043 L 468.8,68.905785 L 473.30909,68.638216 L 477.81818,68.376159 L 482.32727,68.119446 L 486.83636,67.867916 L 491.34546,67.621413 L 495.85455,67.379788 L 500.36364,67.142897 L 504.87273,66.910603 L 509.38182,66.682773 L 513.89091,66.459279 L 518.4,66.24"
       id="path15" />
  </g>
  <g
     id="xtick1">
    <g
       id="line2d2">
      <defs
         id="defs20">
        <path
           d="M 0,0 L 0,-4"
           id="m30e32995789d870ad79a2e54c91cf9c6" />
      </defs>
      <g
         id="g23">
        <use
           height="432"
           width="576"
           id="use25"
           y="388.79999"
           x="103.88571"
           xlink:href="#m30e32995789d870ad79a2e54c91cf9c6"
           style="opacity:1;fill:none;stroke:#000000;stroke-width:0.5;stroke-linecap:butt;stroke-linejoin:miter" />
      </g>
    </g>
    <g
       id="line2d3">
      <defs
         id="defs28">
        <path
           d="M 0,0 L 0,4"
           id="m9281cae24120827b11d5ea8a7ad3e96b" />
      </defs>
      <g
         id="g31">
        <use
           height="432"
           width="576"
           id="use33"
           y="43.200001"
           x="103.88571"
           xlink:href="#m9281cae24120827b11d5ea8a7ad3e96b"
           style="opacity:1;fill:none;stroke:#000000;stroke-width:0.5;stroke-linecap:butt;stroke-linejoin:miter" />
      </g>
    </g>
    <defs
       id="defs35">
      <path
         d="M 19.1875,-8.296875 L 53.609375,-8.296875 L 53.609375,0 L 7.328125,0 L 7.328125,-8.296875 C 11.067708,-12.171875 16.166667,-17.369792 22.625,-23.890625 C 29.09375,-30.421875 33.15625,-34.635417 34.8125,-36.53125 C 37.96875,-40.072917 40.171875,-43.072917 41.421875,-45.53125 C 42.682292,-47.989583 43.3125,-50.40625 43.3125,-52.78125 C 43.3125,-56.65625 41.953125,-59.8125 39.234375,-62.25 C 36.515625,-64.697917 32.973958,-65.921875 28.609375,-65.921875 C 25.515625,-65.921875 22.25,-65.385417 18.8125,-64.3125 C 15.385417,-63.239583 11.71875,-61.609375 7.8125,-59.421875 L 7.8125,-69.390625 C 11.78125,-70.984375 15.489583,-72.1875 18.9375,-73 C 22.395833,-73.8125 25.557292,-74.21875 28.421875,-74.21875 C 35.973958,-74.21875 41.994792,-72.328125 46.484375,-68.546875 C 50.973958,-64.776042 53.21875,-59.734375 53.21875,-53.421875 C 53.21875,-50.421875 52.65625,-47.578125 51.53125,-44.890625 C 50.416667,-42.213542 48.375,-39.052083 45.40625,-35.40625 C 44.59375,-34.458333 42.005208,-31.729167 37.640625,-27.21875 C 33.286458,-22.708333 27.135417,-16.401042 19.1875,-8.296875"
         id="c_ed3f3ed3ebfbd18bcb9c012009a68ad1" />
    </defs>
    <g
       id="g38"
       transform="matrix(0.12,0,0,0.12,101.10446,401.70625)"
       style="opacity:1;fill:#000000">
      <use
         height="432"
         width="576"
         y="0"
         x="0"
         id="use40"
         xlink:href="#c_ed3f3ed3ebfbd18bcb9c012009a68ad1" />
    </g>
  </g>
  <g
     id="xtick2">
    <g
       id="line2d4">
      <g
         id="g44">
        <use
           height="432"
           width="576"
           id="use46"
           y="388.79999"
           x="167.65715"
           xlink:href="#m30e32995789d870ad79a2e54c91cf9c6"
           style="opacity:1;fill:none;stroke:#000000;stroke-width:0.5;stroke-linecap:butt;stroke-linejoin:miter" />
      </g>
    </g>
    <g
       id="line2d5">
      <g
         id="g49">
        <use
           height="432"
           width="576"
           id="use51"
           y="43.200001"
           x="167.65715"
           xlink:href="#m9281cae24120827b11d5ea8a7ad3e96b"
           style="opacity:1;fill:none;stroke:#000000;stroke-width:0.5;stroke-linecap:butt;stroke-linejoin:miter" />
      </g>
    </g>
    <defs
       id="defs53">
      <path
         d="M 37.796875,-64.3125 L 12.890625,-25.390625 L 37.796875,-25.390625 L 37.796875,-64.3125 z M 35.203125,-72.90625 L 47.609375,-72.90625 L 47.609375,-25.390625 L 58.015625,-25.390625 L 58.015625,-17.1875 L 47.609375,-17.1875 L 47.609375,-1.4210855e-14 L 37.796875,-1.4210855e-14 L 37.796875,-17.1875 L 4.890625,-17.1875 L 4.890625,-26.703125 L 35.203125,-72.90625 z"
         id="c_a0416418d96557a09b8c1332d34883ba" />
    </defs>
    <g
       id="g56"
       transform="matrix(0.12,0,0,0.12,164.46964,401.55)"
       style="opacity:1;fill:#000000">
      <use
         height="432"
         width="576"
         y="0"
         x="0"
         id="use58"
         xlink:href="#c_a0416418d96557a09b8c1332d34883ba" />
    </g>
  </g>
  <g
     id="xtick3">
    <g
       id="line2d6">
      <g
         id="g62">
        <use
           height="432"
           width="576"
           id="use64"
           y="388.79999"
           x="231.42857"
           xlink:href="#m30e32995789d870ad79a2e54c91cf9c6"
           style="opacity:1;fill:none;stroke:#000000;stroke-width:0.5;stroke-linecap:butt;stroke-linejoin:miter" />
      </g>
    </g>
    <g
       id="line2d7">
      <g
         id="g67">
        <use
           height="432"
           width="576"
           id="use69"
           y="43.200001"
           x="231.42857"
           xlink:href="#m9281cae24120827b11d5ea8a7ad3e96b"
           style="opacity:1;fill:none;stroke:#000000;stroke-width:0.5;stroke-linecap:butt;stroke-linejoin:miter" />
      </g>
    </g>
    <defs
       id="defs71">
      <path
         d="M 33.015625,-40.375 C 28.588542,-40.375 25.078125,-38.859375 22.484375,-35.828125 C 19.901042,-32.807292 18.609375,-28.661458 18.609375,-23.390625 C 18.609375,-18.151042 19.901042,-14.005208 22.484375,-10.953125 C 25.078125,-7.9114583 28.588542,-6.390625 33.015625,-6.390625 C 37.442708,-6.390625 40.947917,-7.9114583 43.53125,-10.953125 C 46.114583,-14.005208 47.40625,-18.151042 47.40625,-23.390625 C 47.40625,-28.661458 46.114583,-32.807292 43.53125,-35.828125 C 40.947917,-38.859375 37.442708,-40.375 33.015625,-40.375 M 52.59375,-71.296875 L 52.59375,-62.3125 C 50.114583,-63.479167 47.614583,-64.369792 45.09375,-64.984375 C 42.572917,-65.609375 40.072917,-65.921875 37.59375,-65.921875 C 31.083333,-65.921875 26.109375,-63.723958 22.671875,-59.328125 C 19.244792,-54.932292 17.286458,-48.291667 16.796875,-39.40625 C 18.713542,-42.239583 21.119792,-44.411458 24.015625,-45.921875 C 26.921875,-47.432292 30.114583,-48.1875 33.59375,-48.1875 C 40.916667,-48.1875 46.703125,-45.963542 50.953125,-41.515625 C 55.203125,-37.078125 57.328125,-31.036458 57.328125,-23.390625 C 57.328125,-15.901042 55.114583,-9.890625 50.6875,-5.359375 C 46.260417,-0.83854167 40.369792,1.421875 33.015625,1.421875 C 24.578125,1.421875 18.130208,-1.8072917 13.671875,-8.265625 C 9.2135417,-14.734375 6.984375,-24.104167 6.984375,-36.375 C 6.984375,-47.895833 9.71875,-57.083333 15.1875,-63.9375 C 20.65625,-70.791667 27.994792,-74.21875 37.203125,-74.21875 C 39.682292,-74.21875 42.182292,-73.973958 44.703125,-73.484375 C 47.223958,-72.994792 49.854167,-72.265625 52.59375,-71.296875"
         id="c_cc8d6d580d1b10c8632f7a42cd53db8a" />
    </defs>
    <g
       id="g74"
       transform="matrix(0.12,0,0,0.12,228.41295,401.70625)"
       style="opacity:1;fill:#000000">
      <use
         height="432"
         width="576"
         y="0"
         x="0"
         id="use76"
         xlink:href="#c_cc8d6d580d1b10c8632f7a42cd53db8a" />
    </g>
  </g>
  <g
     id="xtick4">
    <g
       id="line2d8">
      <g
         id="g80">
        <use
           height="432"
           width="576"
           id="use82"
           y="388.79999"
           x="295.20001"
           xlink:href="#m30e32995789d870ad79a2e54c91cf9c6"
           style="opacity:1;fill:none;stroke:#000000;stroke-width:0.5;stroke-linecap:butt;stroke-linejoin:miter" />
      </g>
    </g>
    <g
       id="line2d9">
      <g
         id="g85">
        <use
           height="432"
           width="576"
           id="use87"
           y="43.200001"
           x="295.20001"
           xlink:href="#m9281cae24120827b11d5ea8a7ad3e96b"
           style="opacity:1;fill:none;stroke:#000000;stroke-width:0.5;stroke-linecap:butt;stroke-linejoin:miter" />
      </g>
    </g>
    <defs
       id="defs89">
      <path
         d="M 31.78125,-34.625 C 27.09375,-34.625 23.40625,-33.369792 20.71875,-30.859375 C 18.041667,-28.348958 16.703125,-24.901042 16.703125,-20.515625 C 16.703125,-16.119792 18.041667,-12.666667 20.71875,-10.15625 C 23.40625,-7.6458333 27.09375,-6.390625 31.78125,-6.390625 C 36.46875,-6.390625 40.161458,-7.6510417 42.859375,-10.171875 C 45.567708,-12.703125 46.921875,-16.151042 46.921875,-20.515625 C 46.921875,-24.901042 45.578125,-28.348958 42.890625,-30.859375 C 40.213542,-33.369792 36.510417,-34.625 31.78125,-34.625 M 21.921875,-38.8125 C 17.692708,-39.854167 14.395833,-41.822917 12.03125,-44.71875 C 9.6770833,-47.625 8.5,-51.161458 8.5,-55.328125 C 8.5,-61.151042 10.572917,-65.755208 14.71875,-69.140625 C 18.875,-72.526042 24.5625,-74.21875 31.78125,-74.21875 C 39.041667,-74.21875 44.739583,-72.526042 48.875,-69.140625 C 53.010417,-65.755208 55.078125,-61.151042 55.078125,-55.328125 C 55.078125,-51.161458 53.895833,-47.625 51.53125,-44.71875 C 49.177083,-41.822917 45.901042,-39.854167 41.703125,-38.8125 C 46.453125,-37.708333 50.151042,-35.541667 52.796875,-32.3125 C 55.453125,-29.09375 56.78125,-25.161458 56.78125,-20.515625 C 56.78125,-13.442708 54.625,-8.015625 50.3125,-4.234375 C 46,-0.46354167 39.822917,1.421875 31.78125,1.421875 C 23.75,1.421875 17.572917,-0.46354167 13.25,-4.234375 C 8.9375,-8.015625 6.78125,-13.442708 6.78125,-20.515625 C 6.78125,-25.161458 8.1145833,-29.09375 10.78125,-32.3125 C 13.458333,-35.541667 17.171875,-37.708333 21.921875,-38.8125 M 18.3125,-54.390625 C 18.3125,-50.619792 19.489583,-47.677083 21.84375,-45.5625 C 24.208333,-43.447917 27.520833,-42.390625 31.78125,-42.390625 C 36.020833,-42.390625 39.333333,-43.447917 41.71875,-45.5625 C 44.114583,-47.677083 45.3125,-50.619792 45.3125,-54.390625 C 45.3125,-58.171875 44.114583,-61.119792 41.71875,-63.234375 C 39.333333,-65.348958 36.020833,-66.40625 31.78125,-66.40625 C 27.520833,-66.40625 24.208333,-65.348958 21.84375,-63.234375 C 19.489583,-61.119792 18.3125,-58.171875 18.3125,-54.390625"
         id="c_bef35738d52871942e50b9de9b122bab" />
    </defs>
    <g
       id="g92"
       transform="matrix(0.12,0,0,0.12,292.2,401.70625)"
       style="opacity:1;fill:#000000">
      <use
         height="432"
         width="576"
         y="0"
         x="0"
         id="use94"
         xlink:href="#c_bef35738d52871942e50b9de9b122bab" />
    </g>
  </g>
  <g
     id="xtick5">
    <g
       id="line2d10">
      <g
         id="g98">
        <use
           height="432"
           width="576"
           id="use100"
           y="388.79999"
           x="358.97144"
           xlink:href="#m30e32995789d870ad79a2e54c91cf9c6"
           style="opacity:1;fill:none;stroke:#000000;stroke-width:0.5;stroke-linecap:butt;stroke-linejoin:miter" />
      </g>
    </g>
    <g
       id="line2d11">
      <g
         id="g103">
        <use
           height="432"
           width="576"
           id="use105"
           y="43.200001"
           x="358.97144"
           xlink:href="#m9281cae24120827b11d5ea8a7ad3e96b"
           style="opacity:1;fill:none;stroke:#000000;stroke-width:0.5;stroke-linecap:butt;stroke-linejoin:miter" />
      </g>
    </g>
    <defs
       id="defs107">
      <path
         d="M 12.40625,-8.296875 L 28.515625,-8.296875 L 28.515625,-63.921875 L 10.984375,-60.40625 L 10.984375,-69.390625 L 28.421875,-72.90625 L 38.28125,-72.90625 L 38.28125,-8.296875 L 54.390625,-8.296875 L 54.390625,-1.5987212e-14 L 12.40625,-1.5987212e-14 L 12.40625,-8.296875 z"
         id="c_42baa63129a918535c52adb20d687ea7" />
      <path
         d="M 31.78125,-66.40625 C 26.708333,-66.40625 22.890625,-63.90625 20.328125,-58.90625 C 17.776042,-53.916667 16.5,-46.40625 16.5,-36.375 C 16.5,-26.385417 17.776042,-18.890625 20.328125,-13.890625 C 22.890625,-8.890625 26.708333,-6.390625 31.78125,-6.390625 C 36.895833,-6.390625 40.729167,-8.890625 43.28125,-13.890625 C 45.84375,-18.890625 47.125,-26.385417 47.125,-36.375 C 47.125,-46.40625 45.84375,-53.916667 43.28125,-58.90625 C 40.729167,-63.90625 36.895833,-66.40625 31.78125,-66.40625 M 31.78125,-74.21875 C 39.958333,-74.21875 46.203125,-70.984375 50.515625,-64.515625 C 54.828125,-58.057292 56.984375,-48.677083 56.984375,-36.375 C 56.984375,-24.104167 54.828125,-14.734375 50.515625,-8.265625 C 46.203125,-1.8072917 39.958333,1.421875 31.78125,1.421875 C 23.614583,1.421875 17.375,-1.8072917 13.0625,-8.265625 C 8.75,-14.734375 6.59375,-24.104167 6.59375,-36.375 C 6.59375,-48.677083 8.75,-58.057292 13.0625,-64.515625 C 17.375,-70.984375 23.614583,-74.21875 31.78125,-74.21875"
         id="c_7a2040fe3b94fcd41d0a72c84e93b115" />
    </defs>
    <g
       id="g111"
       transform="matrix(0.12,0,0,0.12,352.38549,401.70625)"
       style="opacity:1;fill:#000000">
      <use
         height="432"
         width="576"
         y="0"
         x="0"
         id="use113"
         xlink:href="#c_42baa63129a918535c52adb20d687ea7" />
      <use
         height="432"
         width="576"
         y="0"
         id="use115"
         x="63.623047"
         xlink:href="#c_7a2040fe3b94fcd41d0a72c84e93b115" />
    </g>
  </g>
  <g
     id="xtick6">
    <g
       id="line2d12">
      <g
         id="g119">
        <use
           height="432"
           width="576"
           id="use121"
           y="388.79999"
           x="422.74286"
           xlink:href="#m30e32995789d870ad79a2e54c91cf9c6"
           style="opacity:1;fill:none;stroke:#000000;stroke-width:0.5;stroke-linecap:butt;stroke-linejoin:miter" />
      </g>
    </g>
    <g
       id="line2d13">
      <g
         id="g124">
        <use
           height="432"
           width="576"
           id="use126"
           y="43.200001"
           x="422.74286"
           xlink:href="#m9281cae24120827b11d5ea8a7ad3e96b"
           style="opacity:1;fill:none;stroke:#000000;stroke-width:0.5;stroke-linecap:butt;stroke-linejoin:miter" />
      </g>
    </g>
    <g
       id="g128"
       transform="matrix(0.12,0,0,0.12,416.36005,401.70625)"
       style="opacity:1;fill:#000000">
      <use
         height="432"
         width="576"
         y="0"
         x="0"
         id="use130"
         xlink:href="#c_42baa63129a918535c52adb20d687ea7" />
      <use
         height="432"
         width="576"
         y="0"
         id="use132"
         x="63.623047"
         xlink:href="#c_ed3f3ed3ebfbd18bcb9c012009a68ad1" />
    </g>
  </g>
  <g
     id="xtick7">
    <g
       id="line2d14">
      <g
         id="g136">
        <use
           height="432"
           width="576"
           id="use138"
           y="388.79999"
           x="486.51428"
           xlink:href="#m30e32995789d870ad79a2e54c91cf9c6"
           style="opacity:1;fill:none;stroke:#000000;stroke-width:0.5;stroke-linecap:butt;stroke-linejoin:miter" />
      </g>
    </g>
    <g
       id="line2d15">
      <g
         id="g141">
        <use
           height="432"
           width="576"
           id="use143"
           y="43.200001"
           x="486.51428"
           xlink:href="#m9281cae24120827b11d5ea8a7ad3e96b"
           style="opacity:1;fill:none;stroke:#000000;stroke-width:0.5;stroke-linecap:butt;stroke-linejoin:miter" />
      </g>
    </g>
    <g
       id="g145"
       transform="matrix(0.12,0,0,0.12,479.86585,401.55)"
       style="opacity:1;fill:#000000">
      <use
         height="432"
         width="576"
         y="0"
         x="0"
         id="use147"
         xlink:href="#c_42baa63129a918535c52adb20d687ea7" />
      <use
         height="432"
         width="576"
         y="0"
         id="use149"
         x="63.623047"
         xlink:href="#c_a0416418d96557a09b8c1332d34883ba" />
    </g>
  </g>
  <g
     id="ytick1">
    <g
       id="line2d16">
      <defs
         id="defs218">
        <path
           d="M 0,0 L 4,0"
           id="m3400efa6b1638b3fea9e19e898273957" />
      </defs>
      <g
         id="g221">
        <use
           height="432"
           width="576"
           id="use223"
           y="388.79999"
           x="72"
           xlink:href="#m3400efa6b1638b3fea9e19e898273957"
           style="opacity:1;fill:none;stroke:#000000;stroke-width:0.5;stroke-linecap:butt;stroke-linejoin:miter" />
      </g>
    </g>
    <g
       id="line2d17">
      <defs
         id="defs226">
        <path
           d="M 0,0 L -4,0"
           id="m20b58b2501143cb5e0a5e8f1ef6f1643" />
      </defs>
      <g
         id="g229">
        <use
           height="432"
           width="576"
           id="use231"
           y="388.79999"
           x="518.40002"
           xlink:href="#m20b58b2501143cb5e0a5e8f1ef6f1643"
           style="opacity:1;fill:none;stroke:#000000;stroke-width:0.5;stroke-linecap:butt;stroke-linejoin:miter" />
      </g>
    </g>
    <g
       id="g233"
       transform="matrix(0.12,0,0,0.12,50.5,393.16719)"
       style="opacity:1;fill:#000000">
      <use
         height="432"
         width="576"
         y="0"
         x="0"
         id="use235"
         xlink:href="#c_7a2040fe3b94fcd41d0a72c84e93b115" />
      <use
         height="432"
         width="576"
         y="0"
         id="use237"
         x="63.623047"
         xlink:href="#c_ed3e21196fb739f392806f09ca0594ef" />
      <use
         height="432"
         width="576"
         y="0"
         id="use239"
         x="95.410156"
         xlink:href="#c_7a2040fe3b94fcd41d0a72c84e93b115" />
    </g>
  </g>
  <g
     id="ytick2">
    <g
       id="line2d18">
      <g
         id="g243">
        <use
           height="432"
           width="576"
           id="use245"
           y="319.67999"
           x="72"
           xlink:href="#m3400efa6b1638b3fea9e19e898273957"
           style="opacity:1;fill:none;stroke:#000000;stroke-width:0.5;stroke-linecap:butt;stroke-linejoin:miter" />
      </g>
    </g>
    <g
       id="line2d19">
      <g
         id="g248">
        <use
           height="432"
           width="576"
           id="use250"
           y="319.67999"
           x="518.40002"
           xlink:href="#m20b58b2501143cb5e0a5e8f1ef6f1643"
           style="opacity:1;fill:none;stroke:#000000;stroke-width:0.5;stroke-linecap:butt;stroke-linejoin:miter" />
      </g>
    </g>
    <g
       id="g252"
       transform="matrix(0.12,0,0,0.12,50.90625,324.04719)"
       style="opacity:1;fill:#000000">
      <use
         height="432"
         width="576"
         y="0"
         x="0"
         id="use254"
         xlink:href="#c_7a2040fe3b94fcd41d0a72c84e93b115" />
      <use
         height="432"
         width="576"
         y="0"
         id="use256"
         x="63.623047"
         xlink:href="#c_ed3e21196fb739f392806f09ca0594ef" />
      <use
         height="432"
         width="576"
         y="0"
         id="use258"
         x="95.410156"
         xlink:href="#c_ed3f3ed3ebfbd18bcb9c012009a68ad1" />
    </g>
  </g>
  <g
     id="ytick3">
    <g
       id="line2d20">
      <g
         id="g262">
        <use
           height="432"
           width="576"
           id="use264"
           y="250.56"
           x="72"
           xlink:href="#m3400efa6b1638b3fea9e19e898273957"
           style="opacity:1;fill:none;stroke:#000000;stroke-width:0.5;stroke-linecap:butt;stroke-linejoin:miter" />
      </g>
    </g>
    <g
       id="line2d21">
      <g
         id="g267">
        <use
           height="432"
           width="576"
           id="use269"
           y="250.56"
           x="518.40002"
           xlink:href="#m20b58b2501143cb5e0a5e8f1ef6f1643"
           style="opacity:1;fill:none;stroke:#000000;stroke-width:0.5;stroke-linecap:butt;stroke-linejoin:miter" />
      </g>
    </g>
    <g
       id="g271"
       transform="matrix(0.12,0,0,0.12,50.375,254.92719)"
       style="opacity:1;fill:#000000">
      <use
         height="432"
         width="576"
         y="0"
         x="0"
         id="use273"
         xlink:href="#c_7a2040fe3b94fcd41d0a72c84e93b115" />
      <use
         height="432"
         width="576"
         y="0"
         id="use275"
         x="63.623047"
         xlink:href="#c_ed3e21196fb739f392806f09ca0594ef" />
      <use
         height="432"
         width="576"
         y="0"
         id="use277"
         x="95.410156"
         xlink:href="#c_a0416418d96557a09b8c1332d34883ba" />
    </g>
  </g>
  <g
     id="ytick4">
    <g
       id="line2d22">
      <g
         id="g281">
        <use
           height="432"
           width="576"
           id="use283"
           y="181.44"
           x="72"
           xlink:href="#m3400efa6b1638b3fea9e19e898273957"
           style="opacity:1;fill:none;stroke:#000000;stroke-width:0.5;stroke-linecap:butt;stroke-linejoin:miter" />
      </g>
    </g>
    <g
       id="line2d23">
      <g
         id="g286">
        <use
           height="432"
           width="576"
           id="use288"
           y="181.44"
           x="518.40002"
           xlink:href="#m20b58b2501143cb5e0a5e8f1ef6f1643"
           style="opacity:1;fill:none;stroke:#000000;stroke-width:0.5;stroke-linecap:butt;stroke-linejoin:miter" />
      </g>
    </g>
    <g
       id="g290"
       transform="matrix(0.12,0,0,0.12,50.46875,185.80719)"
       style="opacity:1;fill:#000000">
      <use
         height="432"
         width="576"
         y="0"
         x="0"
         id="use292"
         xlink:href="#c_7a2040fe3b94fcd41d0a72c84e93b115" />
      <use
         height="432"
         width="576"
         y="0"
         id="use294"
         x="63.623047"
         xlink:href="#c_ed3e21196fb739f392806f09ca0594ef" />
      <use
         height="432"
         width="576"
         y="0"
         id="use296"
         x="95.410156"
         xlink:href="#c_cc8d6d580d1b10c8632f7a42cd53db8a" />
    </g>
  </g>
  <g
     id="ytick5">
    <g
       id="line2d24">
      <g
         id="g300">
        <use
           height="432"
           width="576"
           id="use302"
           y="112.32"
           x="72"
           xlink:href="#m3400efa6b1638b3fea9e19e898273957"
           style="opacity:1;fill:none;stroke:#000000;stroke-width:0.5;stroke-linecap:butt;stroke-linejoin:miter" />
      </g>
    </g>
    <g
       id="line2d25">
      <g
         id="g305">
        <use
           height="432"
           width="576"
           id="use307"
           y="112.32"
           x="518.40002"
           xlink:href="#m20b58b2501143cb5e0a5e8f1ef6f1643"
           style="opacity:1;fill:none;stroke:#000000;stroke-width:0.5;stroke-linecap:butt;stroke-linejoin:miter" />
      </g>
    </g>
    <g
       id="g309"
       transform="matrix(0.12,0,0,0.12,50.53125,116.68719)"
       style="opacity:1;fill:#000000">
      <use
         height="432"
         width="576"
         y="0"
         x="0"
         id="use311"
         xlink:href="#c_7a2040fe3b94fcd41d0a72c84e93b115" />
      <use
         height="432"
         width="576"
         y="0"
         id="use313"
         x="63.623047"
         xlink:href="#c_ed3e21196fb739f392806f09ca0594ef" />
      <use
         height="432"
         width="576"
         y="0"
         id="use315"
         x="95.410156"
         xlink:href="#c_bef35738d52871942e50b9de9b122bab" />
    </g>
  </g>
  <g
     id="ytick6">
    <g
       id="line2d26">
      <g
         id="g319">
        <use
           height="432"
           width="576"
           id="use321"
           y="43.200001"
           x="72"
           xlink:href="#m3400efa6b1638b3fea9e19e898273957"
           style="opacity:1;fill:none;stroke:#000000;stroke-width:0.5;stroke-linecap:butt;stroke-linejoin:miter" />
      </g>
    </g>
    <g
       id="line2d27">
      <g
         id="g324">
        <use
           height="432"
           width="576"
           id="use326"
           y="43.200001"
           x="518.40002"
           xlink:href="#m20b58b2501143cb5e0a5e8f1ef6f1643"
           style="opacity:1;fill:none;stroke:#000000;stroke-width:0.5;stroke-linecap:butt;stroke-linejoin:miter" />
      </g>
    </g>
    <g
       id="g328"
       transform="matrix(0.12,0,0,0.12,51.015625,47.567187)"
       style="opacity:1;fill:#000000">
      <use
         height="432"
         width="576"
         y="0"
         x="0"
         id="use330"
         xlink:href="#c_42baa63129a918535c52adb20d687ea7" />
      <use
         height="432"
         width="576"
         y="0"
         id="use332"
         x="63.623047"
         xlink:href="#c_ed3e21196fb739f392806f09ca0594ef" />
      <use
         height="432"
         width="576"
         y="0"
         id="use334"
         x="95.410156"
         xlink:href="#c_7a2040fe3b94fcd41d0a72c84e93b115" />
    </g>
  </g>
  <path
     style="fill:none;stroke:#000000;stroke-width:1;stroke-linecap:square;stroke-linejoin:miter"
     d="M 72,388.8 L 518.4,388.8 L 518.4,43.2 L 72,43.2 L 72,388.8"
     id="path363" />
  <text
     xml:space="preserve"
     style="font-size:17.60000038px;font-style:normal;font-variant:normal;font-weight:normal;font-stretch:normal;text-align:start;line-height:100%;writing-mode:lr-tb;text-anchor:start;fill:#000000;fill-opacity:1;stroke:none;stroke-width:1px;stroke-linecap:butt;stroke-linejoin:miter;stroke-opacity:1;font-family:Droid Sans;-inkscape-font-specification:Droid Sans"
     x="114.23108"
     y="79.866135"
     id="text2743"
     sodipodi:linespacing="100%"><tspan
       sodipodi:role="line"
       id="tspan2745"
       x="114.23108"
       y="79.866135">Asymptote</tspan></text>
  <path
     style="fill:none;fill-rule:evenodd;stroke:#000000;stroke-width:1px;stroke-linecap:butt;stroke-linejoin:miter;stroke-opacity:1;marker-end:url(#Arrow1Lend)"
     d="M 200.79681,74.581673 L 260.46215,48.191235"
     id="path2747" />
  <text
     xml:space="preserve"
     style="font-size:17.60000038px;font-style:normal;font-variant:normal;font-weight:normal;font-stretch:normal;text-align:start;line-height:100%;writing-mode:lr-tb;text-anchor:start;fill:#000000;fill-opacity:1;stroke:none;stroke-width:1px;stroke-linecap:butt;stroke-linejoin:miter;stroke-opacity:1;font-family:Droid Sans;-inkscape-font-specification:Droid Sans"
     x="392.11719"
     y="103.45586"
     id="text4337"
     sodipodi:linespacing="100%"><tspan
       sodipodi:role="line"
       id="tspan4339"
       x="392.11719"
       y="103.45586">Physics</tspan></text>
  <path
     style="fill:none;fill-rule:evenodd;stroke:#000000;stroke-width:1px;stroke-linecap:butt;stroke-linejoin:miter;stroke-opacity:1;marker-start:none;marker-end:url(#Arrow1Lend)"
     d="M 452,97.6 L 574.4,76.8"
     id="path4341"
     sodipodi:nodetypes="cc" />
  <path
     style="fill:none;fill-rule:evenodd;stroke:#000000;stroke-width:1px;stroke-linecap:butt;stroke-linejoin:miter;stroke-opacity:1"
     d="M 265.6,388 L 265.6,42.4"
     id="path5888" />
  <text
     xml:space="preserve"
     style="font-size:17.60000038px;font-style:normal;font-variant:normal;font-weight:normal;font-stretch:normal;text-align:start;line-height:100%;writing-mode:lr-tb;text-anchor:start;fill:#000000;fill-opacity:1;stroke:none;stroke-width:1px;stroke-linecap:butt;stroke-linejoin:miter;stroke-opacity:1;font-family:Droid Sans;-inkscape-font-specification:Droid Sans"
     x="-328.90546"
     y="283.50272"
     id="text5890"
     sodipodi:linespacing="100%"
     transform="matrix(0,-1,1,0,0,0)"><tspan
       sodipodi:role="line"
       id="tspan5892"
       x="-328.90546"
       y="283.50272">Deadline</tspan></text>
  <text
     xml:space="preserve"
     style="font-size:17.60000038px;font-style:normal;font-variant:normal;font-weight:normal;font-stretch:normal;text-align:start;line-height:100%;writing-mode:lr-tb;text-anchor:start;fill:#000000;fill-opacity:1;stroke:none;stroke-width:1px;stroke-linecap:butt;stroke-linejoin:miter;stroke-opacity:1;font-family:Droid Sans;-inkscape-font-specification:Droid Sans"
     x="169.71719"
     y="333.05585"
     id="text5894"
     sodipodi:linespacing="100%"><tspan
       sodipodi:role="line"
       id="tspan5896"
       x="169.71719"
       y="333.05585" /></text>
  <text
     xml:space="preserve"
     style="font-size:17.60000038px;font-style:normal;font-variant:normal;font-weight:normal;font-stretch:normal;text-align:start;line-height:100%;writing-mode:lr-tb;text-anchor:start;fill:#000000;fill-opacity:1;stroke:none;stroke-width:1px;stroke-linecap:butt;stroke-linejoin:miter;stroke-opacity:1;font-family:Droid Sans;-inkscape-font-specification:Droid Sans"
     x="304.91718"
     y="171.45586"
     id="text5898"
     sodipodi:linespacing="100%"><tspan
       sodipodi:role="line"
       id="tspan5900"
       x="304.91718"
       y="171.45586">Engineering</tspan></text>
  <path
     style="fill:none;fill-rule:evenodd;stroke:#000000;stroke-width:1px;stroke-linecap:butt;stroke-linejoin:miter;marker-end:url(#Arrow1Lend);stroke-opacity:1"
     d="M 334.96733,153.19522 L 267.43267,94.004781"
     id="path5902"
     sodipodi:nodetypes="cc" />
  <path
     style="fill:none;fill-rule:evenodd;stroke:#ff0000;stroke-width:4;stroke-linecap:butt;stroke-linejoin:miter;stroke-opacity:1;stroke-miterlimit:4;stroke-dasharray:none"
     d="M 265.6,43.2 L 265.6,91.2"
     id="path5904" />
  <text
     xml:space="preserve"
     style="font-size:17.60000038px;font-style:normal;font-variant:normal;font-weight:normal;font-stretch:normal;text-align:start;line-height:100%;writing-mode:lr-tb;text-anchor:start;fill:#000000;fill-opacity:1;stroke:none;stroke-width:1px;stroke-linecap:butt;stroke-linejoin:miter;stroke-opacity:1;font-family:Droid Sans;-inkscape-font-specification:Droid Sans"
     x="-253.04063"
     y="41.799999"
     id="text3381"
     sodipodi:linespacing="100%"
     transform="matrix(0,-1,1,0,0,0)"><tspan
       sodipodi:role="line"
       id="tspan3383"
       x="-253.04063"
       y="41.799999">Progress</tspan></text>
  <text
     xml:space="preserve"
     style="font-size:17.60000038px;font-style:normal;font-variant:normal;font-weight:normal;font-stretch:normal;text-align:start;line-height:100%;writing-mode:lr-tb;text-anchor:start;fill:#000000;fill-opacity:1;stroke:none;stroke-width:1px;stroke-linecap:butt;stroke-linejoin:miter;stroke-opacity:1;font-family:Droid Sans;-inkscape-font-specification:Droid Sans"
     x="201.11797"
     y="421.76797"
     id="text3385"
     sodipodi:linespacing="100%"
     inkscape:transform-center-x="24"
     inkscape:transform-center-y="-10.495117"><tspan
       sodipodi:role="line"
       id="tspan3387"
       x="201.11797"
       y="421.76797">Time [Months, years...]</tspan></text>
</svg>
