<?xml version="1.0" encoding="UTF-8" standalone="no"?>
<!-- Created with matplotlib (http://matplotlib.sourceforge.net/) -->
<svg
   xmlns:dc="http://purl.org/dc/elements/1.1/"
   xmlns:cc="http://creativecommons.org/ns#"
   xmlns:rdf="http://www.w3.org/1999/02/22-rdf-syntax-ns#"
   xmlns:svg="http://www.w3.org/2000/svg"
   xmlns="http://www.w3.org/2000/svg"
   xmlns:xlink="http://www.w3.org/1999/xlink"
   xmlns:sodipodi="http://sodipodi.sourceforge.net/DTD/sodipodi-0.dtd"
   xmlns:inkscape="http://www.inkscape.org/namespaces/inkscape"
   width="576pt"
   height="432pt"
   viewBox="0 0 576 432"
   version="1.1"
   id="svg1"
   sodipodi:version="0.32"
   inkscape:version="0.46"
   sodipodi:docname="ingenieria.svg"
   inkscape:output_extension="org.inkscape.output.svg.inkscape"
   inkscape:export-filename="/home/guillem/5.png"
   inkscape:export-xdpi="90"
   inkscape:export-ydpi="90">
  <metadata
     id="metadata368">
    <rdf:RDF>
      <cc:Work
         rdf:about="">
        <dc:format>image/svg+xml</dc:format>
        <dc:type
           rdf:resource="http://purl.org/dc/dcmitype/StillImage" />
      </cc:Work>
    </rdf:RDF>
  </metadata>
  <defs
     id="defs366">
    <marker
       inkscape:stockid="Arrow1Lend"
       orient="auto"
       refY="0.0"
       refX="0.0"
       id="Arrow1Lend"
       style="overflow:visible;">
      <path
         id="path3525"
         d="M 0.0,0.0 L 5.0,-5.0 L -12.5,0.0 L 5.0,5.0 L 0.0,0.0 z "
         style="fill-rule:evenodd;stroke:#000000;stroke-width:1.0pt;marker-start:none;"
         transform="scale(0.8) rotate(180) translate(12.5,0)" />
    </marker>
    <inkscape:perspective
       sodipodi:type="inkscape:persp3d"
       inkscape:vp_x="0 : 270 : 1"
       inkscape:vp_y="0 : 1000 : 0"
       inkscape:vp_z="720 : 270 : 1"
       inkscape:persp3d-origin="360 : 180 : 1"
       id="perspective370" />
  </defs>
  <sodipodi:namedview
     inkscape:window-height="968"
     inkscape:window-width="1280"
     inkscape:pageshadow="2"
     inkscape:pageopacity="0.0"
     guidetolerance="10.0"
     gridtolerance="10.0"
     objecttolerance="10.0"
     borderopacity="1.0"
     bordercolor="#666666"
     pagecolor="#ffffff"
     id="base"
     showgrid="false"
     inkscape:zoom="1"
     inkscape:cx="360"
     inkscape:cy="270"
     inkscape:window-x="-4"
     inkscape:window-y="-3"
     inkscape:current-layer="svg1" />
  <g
     id="figure1">
    <path
       style="fill: #ffffff; stroke: #ffffff; stroke-width: 1.000000; stroke-linejoin: miter; stroke-linecap: square;  opacity: 1.000000"
       d="M0.000000 432.000000L576.000000 432.000000L576.000000 0.000000 L0.000000 0.000000L0.000000 432.000000"
       id="path4" />
    <g
       id="axes1">
      <path
         style="fill: #ffffff; opacity: 1.000000"
         d="M72.000000 388.800000L518.400000 388.800000L518.400000 43.200000 L72.000000 43.200000L72.000000 388.800000"
         id="path7" />
      <g
         id="line2d1">
        <defs
           id="defs10">
          <clipPath
             id="p50431ccdcb28178602d99d9270004dde">
            <rect
               x="72.000000"
               y="43.200000"
               width="446.400000"
               height="345.600000"
               id="rect13" />
          </clipPath>
        </defs>
        <path
           style="fill: none; stroke: #0000ff; stroke-width: 1.000000; stroke-linejoin: miter; stroke-linecap: square;  opacity: 1.000000"
           clip-path="url(#p50431ccdcb28178602d99d9270004dde)"
           d="M72.000000 388.800000L76.509091 345.982301L81.018182 312.604724 L85.527273 285.855319L90.036364 263.938065L94.545455 245.652071 L99.054545 230.163934L103.563636 216.877157L108.072727 205.353555 L112.581818 195.264000L117.090909 186.356485L121.600000 178.434783 L126.109091 171.343820L130.618182 164.959431L135.127273 159.181017 L139.636364 153.926214L144.145455 149.126935L148.654545 144.726409 L153.163636 140.676923L157.672727 136.938082L162.181818 133.475462 L166.690909 130.259542L171.200000 127.264865L175.709091 124.469359 L180.218182 121.853793L184.727273 119.401336L189.236364 117.097192 L193.745455 114.928302L198.254545 112.883096L202.763636 110.951287 L207.272727 109.123699L211.781818 107.392120L216.290909 105.749177 L220.800000 104.188235L225.309091 102.703304L229.818182 101.288964 L234.327273 99.940299L238.836364 98.652836L243.345455 97.422504 L247.854545 96.245581L252.363636 95.118665L256.872727 94.038633 L261.381818 93.002620L265.890909 92.007989L270.400000 91.052308 L274.909091 90.133333L279.418182 89.248991L283.927273 88.397358 L288.436364 87.576654L292.945455 86.785223L297.454545 86.021527 L301.963636 85.284133L306.472727 84.571705L310.981818 83.882996 L315.490909 83.216842L320.000000 82.572152L324.509091 81.947905 L329.018182 81.343144L333.527273 80.756970L338.036364 80.188541 L342.545455 79.637061L347.054545 79.101784L351.563636 78.582006 L356.072727 78.077064L360.581818 77.586332L365.090909 77.109217 L369.600000 76.645161L374.109091 76.193635L378.618182 75.754139 L383.127273 75.326197L387.636364 74.909361L392.145455 74.503202 L396.654545 74.107317L401.163636 73.721320L405.672727 73.344846 L410.181818 72.977546L414.690909 72.619089L419.200000 72.269159 L423.709091 71.927456L428.218182 71.593693L432.727273 71.267596 L437.236364 70.948905L441.745455 70.637370L446.254545 70.332752 L450.763636 70.034824L455.272727 69.743367L459.781818 69.458173 L464.290909 69.179043L468.800000 68.905785L473.309091 68.638216 L477.818182 68.376159L482.327273 68.119446L486.836364 67.867916 L491.345455 67.621413L495.854545 67.379788L500.363636 67.142897 L504.872727 66.910603L509.381818 66.682773L513.890909 66.459279 L518.400000 66.240000"
           id="path15" />
      </g>
      <g
         id="matplotlib.axis1">
        <g
           id="xtick1">
          <g
             id="line2d2">
            <defs
               id="defs20">
              <path
                 id="m30e32995789d870ad79a2e54c91cf9c6"
                 d="M0.000000 0.000000L0.000000 -4.000000" />
            </defs>
            <g
               id="g23">
              <use
                 style="fill: none; stroke: #000000; stroke-width: 0.500000; stroke-linejoin: miter; stroke-linecap: butt;  opacity: 1.000000"
                 xlink:href="#m30e32995789d870ad79a2e54c91cf9c6"
                 x="103.885714"
                 y="388.800000"
                 id="use25" />
            </g>
          </g>
          <g
             id="line2d3">
            <defs
               id="defs28">
              <path
                 id="m9281cae24120827b11d5ea8a7ad3e96b"
                 d="M0.000000 0.000000L0.000000 4.000000" />
            </defs>
            <g
               id="g31">
              <use
                 style="fill: none; stroke: #000000; stroke-width: 0.500000; stroke-linejoin: miter; stroke-linecap: butt;  opacity: 1.000000"
                 xlink:href="#m9281cae24120827b11d5ea8a7ad3e96b"
                 x="103.885714"
                 y="43.200000"
                 id="use33" />
            </g>
          </g>
          <defs
             id="defs35">
            <path
               id="c_ed3f3ed3ebfbd18bcb9c012009a68ad1"
               d="M19.187500 -8.296875l34.421875 0.000000l0.000000 8.296875l-46.281250 0.000000l0.000000 -8.296875q5.609375 -5.812500 15.296875 -15.593750q9.703125 -9.796875 12.187500 -12.640625q4.734375 -5.312500 6.609375 -9.000000q1.890625 -3.687500 1.890625 -7.250000q0.000000 -5.812500 -4.078125 -9.468750q-4.078125 -3.671875 -10.625000 -3.671875q-4.640625 0.000000 -9.796875 1.609375q-5.140625 1.609375 -11.000000 4.890625l0.000000 -9.968750q5.953125 -2.390625 11.125000 -3.609375q5.187500 -1.218750 9.484375 -1.218750q11.328125 0.000000 18.062500 5.671875q6.734375 5.656250 6.734375 15.125000q0.000000 4.500000 -1.687500 8.531250q-1.671875 4.015625 -6.125000 9.484375q-1.218750 1.421875 -7.765625 8.187500q-6.531250 6.765625 -18.453125 18.921875" />
          </defs>
          <g
             style="fill: #000000; opacity: 1.000000"
             transform="translate(101.104464,401.706250)scale(0.120000)"
             id="g38">
            <use
               xlink:href="#c_ed3f3ed3ebfbd18bcb9c012009a68ad1"
               id="use40" />
          </g>
        </g>
        <g
           id="xtick2">
          <g
             id="line2d4">
            <g
               id="g44">
              <use
                 style="fill: none; stroke: #000000; stroke-width: 0.500000; stroke-linejoin: miter; stroke-linecap: butt;  opacity: 1.000000"
                 xlink:href="#m30e32995789d870ad79a2e54c91cf9c6"
                 x="167.657143"
                 y="388.800000"
                 id="use46" />
            </g>
          </g>
          <g
             id="line2d5">
            <g
               id="g49">
              <use
                 style="fill: none; stroke: #000000; stroke-width: 0.500000; stroke-linejoin: miter; stroke-linecap: butt;  opacity: 1.000000"
                 xlink:href="#m9281cae24120827b11d5ea8a7ad3e96b"
                 x="167.657143"
                 y="43.200000"
                 id="use51" />
            </g>
          </g>
          <defs
             id="defs53">
            <path
               id="c_a0416418d96557a09b8c1332d34883ba"
               d="M37.796875 -64.312500l-24.906250 38.921875l24.906250 0.000000zM35.203125 -72.906250l12.406250 0.000000l0.000000 47.515625l10.406250 0.000000l0.000000 8.203125l-10.406250 0.000000l0.000000 17.187500l-9.812500 0.000000l0.000000 -17.187500l-32.906250 0.000000l0.000000 -9.515625z" />
          </defs>
          <g
             style="fill: #000000; opacity: 1.000000"
             transform="translate(164.469643,401.550000)scale(0.120000)"
             id="g56">
            <use
               xlink:href="#c_a0416418d96557a09b8c1332d34883ba"
               id="use58" />
          </g>
        </g>
        <g
           id="xtick3">
          <g
             id="line2d6">
            <g
               id="g62">
              <use
                 style="fill: none; stroke: #000000; stroke-width: 0.500000; stroke-linejoin: miter; stroke-linecap: butt;  opacity: 1.000000"
                 xlink:href="#m30e32995789d870ad79a2e54c91cf9c6"
                 x="231.428571"
                 y="388.800000"
                 id="use64" />
            </g>
          </g>
          <g
             id="line2d7">
            <g
               id="g67">
              <use
                 style="fill: none; stroke: #000000; stroke-width: 0.500000; stroke-linejoin: miter; stroke-linecap: butt;  opacity: 1.000000"
                 xlink:href="#m9281cae24120827b11d5ea8a7ad3e96b"
                 x="231.428571"
                 y="43.200000"
                 id="use69" />
            </g>
          </g>
          <defs
             id="defs71">
            <path
               id="c_cc8d6d580d1b10c8632f7a42cd53db8a"
               d="M33.015625 -40.375000q-6.640625 0.000000 -10.531250 4.546875q-3.875000 4.531250 -3.875000 12.437500q0.000000 7.859375 3.875000 12.437500q3.890625 4.562500 10.531250 4.562500q6.640625 0.000000 10.515625 -4.562500q3.875000 -4.578125 3.875000 -12.437500q0.000000 -7.906250 -3.875000 -12.437500q-3.875000 -4.546875 -10.515625 -4.546875M52.593750 -71.296875l0.000000 8.984375q-3.718750 -1.750000 -7.500000 -2.671875q-3.781250 -0.937500 -7.500000 -0.937500q-9.765625 0.000000 -14.921875 6.593750q-5.140625 6.593750 -5.875000 19.921875q2.875000 -4.250000 7.218750 -6.515625q4.359375 -2.265625 9.578125 -2.265625q10.984375 0.000000 17.359375 6.671875q6.375000 6.656250 6.375000 18.125000q0.000000 11.234375 -6.640625 18.031250q-6.640625 6.781250 -17.671875 6.781250q-12.656250 0.000000 -19.343750 -9.687500q-6.687500 -9.703125 -6.687500 -28.109375q0.000000 -17.281250 8.203125 -27.562500q8.203125 -10.281250 22.015625 -10.281250q3.718750 0.000000 7.500000 0.734375q3.781250 0.734375 7.890625 2.187500" />
          </defs>
          <g
             style="fill: #000000; opacity: 1.000000"
             transform="translate(228.412946,401.706250)scale(0.120000)"
             id="g74">
            <use
               xlink:href="#c_cc8d6d580d1b10c8632f7a42cd53db8a"
               id="use76" />
          </g>
        </g>
        <g
           id="xtick4">
          <g
             id="line2d8">
            <g
               id="g80">
              <use
                 style="fill: none; stroke: #000000; stroke-width: 0.500000; stroke-linejoin: miter; stroke-linecap: butt;  opacity: 1.000000"
                 xlink:href="#m30e32995789d870ad79a2e54c91cf9c6"
                 x="295.200000"
                 y="388.800000"
                 id="use82" />
            </g>
          </g>
          <g
             id="line2d9">
            <g
               id="g85">
              <use
                 style="fill: none; stroke: #000000; stroke-width: 0.500000; stroke-linejoin: miter; stroke-linecap: butt;  opacity: 1.000000"
                 xlink:href="#m9281cae24120827b11d5ea8a7ad3e96b"
                 x="295.200000"
                 y="43.200000"
                 id="use87" />
            </g>
          </g>
          <defs
             id="defs89">
            <path
               id="c_bef35738d52871942e50b9de9b122bab"
               d="M31.781250 -34.625000q-7.031250 0.000000 -11.062500 3.765625q-4.015625 3.765625 -4.015625 10.343750q0.000000 6.593750 4.015625 10.359375q4.031250 3.765625 11.062500 3.765625q7.031250 0.000000 11.078125 -3.781250q4.062500 -3.796875 4.062500 -10.343750q0.000000 -6.578125 -4.031250 -10.343750q-4.015625 -3.765625 -11.109375 -3.765625M21.921875 -38.812500q-6.343750 -1.562500 -9.890625 -5.906250q-3.531250 -4.359375 -3.531250 -10.609375q0.000000 -8.734375 6.218750 -13.812500q6.234375 -5.078125 17.062500 -5.078125q10.890625 0.000000 17.093750 5.078125q6.203125 5.078125 6.203125 13.812500q0.000000 6.250000 -3.546875 10.609375q-3.531250 4.343750 -9.828125 5.906250q7.125000 1.656250 11.093750 6.500000q3.984375 4.828125 3.984375 11.796875q0.000000 10.609375 -6.468750 16.281250q-6.468750 5.656250 -18.531250 5.656250q-12.046875 0.000000 -18.531250 -5.656250q-6.468750 -5.671875 -6.468750 -16.281250q0.000000 -6.968750 4.000000 -11.796875q4.015625 -4.843750 11.140625 -6.500000M18.312500 -54.390625q0.000000 5.656250 3.531250 8.828125q3.546875 3.171875 9.937500 3.171875q6.359375 0.000000 9.937500 -3.171875q3.593750 -3.171875 3.593750 -8.828125q0.000000 -5.671875 -3.593750 -8.843750q-3.578125 -3.171875 -9.937500 -3.171875q-6.390625 0.000000 -9.937500 3.171875q-3.531250 3.171875 -3.531250 8.843750" />
          </defs>
          <g
             style="fill: #000000; opacity: 1.000000"
             transform="translate(292.200000,401.706250)scale(0.120000)"
             id="g92">
            <use
               xlink:href="#c_bef35738d52871942e50b9de9b122bab"
               id="use94" />
          </g>
        </g>
        <g
           id="xtick5">
          <g
             id="line2d10">
            <g
               id="g98">
              <use
                 style="fill: none; stroke: #000000; stroke-width: 0.500000; stroke-linejoin: miter; stroke-linecap: butt;  opacity: 1.000000"
                 xlink:href="#m30e32995789d870ad79a2e54c91cf9c6"
                 x="358.971429"
                 y="388.800000"
                 id="use100" />
            </g>
          </g>
          <g
             id="line2d11">
            <g
               id="g103">
              <use
                 style="fill: none; stroke: #000000; stroke-width: 0.500000; stroke-linejoin: miter; stroke-linecap: butt;  opacity: 1.000000"
                 xlink:href="#m9281cae24120827b11d5ea8a7ad3e96b"
                 x="358.971429"
                 y="43.200000"
                 id="use105" />
            </g>
          </g>
          <defs
             id="defs107">
            <path
               id="c_42baa63129a918535c52adb20d687ea7"
               d="M12.406250 -8.296875l16.109375 0.000000l0.000000 -55.625000l-17.531250 3.515625l0.000000 -8.984375l17.437500 -3.515625l9.859375 0.000000l0.000000 64.609375l16.109375 0.000000l0.000000 8.296875l-41.984375 0.000000z" />
            <path
               id="c_7a2040fe3b94fcd41d0a72c84e93b115"
               d="M31.781250 -66.406250q-7.609375 0.000000 -11.453125 7.500000q-3.828125 7.484375 -3.828125 22.531250q0.000000 14.984375 3.828125 22.484375q3.843750 7.500000 11.453125 7.500000q7.671875 0.000000 11.500000 -7.500000q3.843750 -7.500000 3.843750 -22.484375q0.000000 -15.046875 -3.843750 -22.531250q-3.828125 -7.500000 -11.500000 -7.500000M31.781250 -74.218750q12.265625 0.000000 18.734375 9.703125q6.468750 9.687500 6.468750 28.140625q0.000000 18.406250 -6.468750 28.109375q-6.468750 9.687500 -18.734375 9.687500q-12.250000 0.000000 -18.718750 -9.687500q-6.468750 -9.703125 -6.468750 -28.109375q0.000000 -18.453125 6.468750 -28.140625q6.468750 -9.703125 18.718750 -9.703125" />
          </defs>
          <g
             style="fill: #000000; opacity: 1.000000"
             transform="translate(352.385491,401.706250)scale(0.120000)"
             id="g111">
            <use
               xlink:href="#c_42baa63129a918535c52adb20d687ea7"
               id="use113" />
            <use
               xlink:href="#c_7a2040fe3b94fcd41d0a72c84e93b115"
               x="63.623047"
               id="use115" />
          </g>
        </g>
        <g
           id="xtick6">
          <g
             id="line2d12">
            <g
               id="g119">
              <use
                 style="fill: none; stroke: #000000; stroke-width: 0.500000; stroke-linejoin: miter; stroke-linecap: butt;  opacity: 1.000000"
                 xlink:href="#m30e32995789d870ad79a2e54c91cf9c6"
                 x="422.742857"
                 y="388.800000"
                 id="use121" />
            </g>
          </g>
          <g
             id="line2d13">
            <g
               id="g124">
              <use
                 style="fill: none; stroke: #000000; stroke-width: 0.500000; stroke-linejoin: miter; stroke-linecap: butt;  opacity: 1.000000"
                 xlink:href="#m9281cae24120827b11d5ea8a7ad3e96b"
                 x="422.742857"
                 y="43.200000"
                 id="use126" />
            </g>
          </g>
          <g
             style="fill: #000000; opacity: 1.000000"
             transform="translate(416.360045,401.706250)scale(0.120000)"
             id="g128">
            <use
               xlink:href="#c_42baa63129a918535c52adb20d687ea7"
               id="use130" />
            <use
               xlink:href="#c_ed3f3ed3ebfbd18bcb9c012009a68ad1"
               x="63.623047"
               id="use132" />
          </g>
        </g>
        <g
           id="xtick7">
          <g
             id="line2d14">
            <g
               id="g136">
              <use
                 style="fill: none; stroke: #000000; stroke-width: 0.500000; stroke-linejoin: miter; stroke-linecap: butt;  opacity: 1.000000"
                 xlink:href="#m30e32995789d870ad79a2e54c91cf9c6"
                 x="486.514286"
                 y="388.800000"
                 id="use138" />
            </g>
          </g>
          <g
             id="line2d15">
            <g
               id="g141">
              <use
                 style="fill: none; stroke: #000000; stroke-width: 0.500000; stroke-linejoin: miter; stroke-linecap: butt;  opacity: 1.000000"
                 xlink:href="#m9281cae24120827b11d5ea8a7ad3e96b"
                 x="486.514286"
                 y="43.200000"
                 id="use143" />
            </g>
          </g>
          <g
             style="fill: #000000; opacity: 1.000000"
             transform="translate(479.865848,401.550000)scale(0.120000)"
             id="g145">
            <use
               xlink:href="#c_42baa63129a918535c52adb20d687ea7"
               id="use147" />
            <use
               xlink:href="#c_a0416418d96557a09b8c1332d34883ba"
               x="63.623047"
               id="use149" />
          </g>
        </g>
        <defs
           id="defs151">
          <path
             id="c_9e4b30cbdf32072672ded72e9074c4c9"
             d="M-0.296875 -72.906250l61.671875 0.000000l0.000000 8.312500l-25.875000 0.000000l0.000000 64.593750l-9.906250 0.000000l0.000000 -64.593750l-25.890625 0.000000z" />
          <path
             id="c_6a63bda47b2f3da1cec6aadd80692cfe"
             d="M9.421875 -54.687500l8.984375 0.000000l0.000000 54.687500l-8.984375 0.000000zM9.421875 -75.984375l8.984375 0.000000l0.000000 11.390625l-8.984375 0.000000z" />
          <path
             id="c_0bce5afba2dc6b9024b26277c38ad8e8"
             d="M56.203125 -29.593750l0.000000 4.390625l-41.312500 0.000000q0.593750 9.281250 5.593750 14.140625q5.000000 4.859375 13.937500 4.859375q5.171875 0.000000 10.031250 -1.265625q4.859375 -1.265625 9.656250 -3.812500l0.000000 8.500000q-4.843750 2.046875 -9.921875 3.125000q-5.078125 1.078125 -10.296875 1.078125q-13.093750 0.000000 -20.734375 -7.609375q-7.640625 -7.625000 -7.640625 -20.625000q0.000000 -13.421875 7.250000 -21.296875q7.250000 -7.890625 19.562500 -7.890625q11.031250 0.000000 17.453125 7.109375q6.421875 7.093750 6.421875 19.296875M47.218750 -32.234375q-0.093750 -7.359375 -4.125000 -11.750000q-4.031250 -4.406250 -10.671875 -4.406250q-7.515625 0.000000 -12.031250 4.250000q-4.515625 4.250000 -5.203125 11.968750z" />
          <path
             id="c_4653c6dfde66c7610eae0911760d3490"
             d="M52.000000 -44.187500q3.375000 -6.062500 8.062500 -8.937500q4.687500 -2.875000 11.031250 -2.875000q8.546875 0.000000 13.187500 5.984375q4.640625 5.968750 4.640625 17.000000l0.000000 33.015625l-9.031250 0.000000l0.000000 -32.718750q0.000000 -7.859375 -2.796875 -11.656250q-2.781250 -3.812500 -8.484375 -3.812500q-6.984375 0.000000 -11.046875 4.640625q-4.046875 4.625000 -4.046875 12.640625l0.000000 30.906250l-9.031250 0.000000l0.000000 -32.718750q0.000000 -7.906250 -2.781250 -11.687500q-2.781250 -3.781250 -8.593750 -3.781250q-6.890625 0.000000 -10.953125 4.656250q-4.046875 4.656250 -4.046875 12.625000l0.000000 30.906250l-9.031250 0.000000l0.000000 -54.687500l9.031250 0.000000l0.000000 8.500000q3.078125 -5.031250 7.375000 -7.421875q4.296875 -2.390625 10.203125 -2.390625q5.968750 0.000000 10.140625 3.031250q4.171875 3.015625 6.171875 8.781250" />
          <path
             id="c_f15a64fcd463ef4629c48bab42cde24c"
             d="M18.109375 -8.203125l0.000000 29.000000l-9.031250 0.000000l0.000000 -75.484375l9.031250 0.000000l0.000000 8.296875q2.843750 -4.875000 7.156250 -7.234375q4.328125 -2.375000 10.328125 -2.375000q9.968750 0.000000 16.187500 7.906250q6.234375 7.906250 6.234375 20.796875q0.000000 12.890625 -6.234375 20.812500q-6.218750 7.906250 -16.187500 7.906250q-6.000000 0.000000 -10.328125 -2.375000q-4.312500 -2.375000 -7.156250 -7.250000M48.687500 -27.296875q0.000000 -9.906250 -4.078125 -15.546875q-4.078125 -5.640625 -11.203125 -5.640625q-7.140625 0.000000 -11.218750 5.640625q-4.078125 5.640625 -4.078125 15.546875q0.000000 9.906250 4.078125 15.546875q4.078125 5.640625 11.218750 5.640625q7.125000 0.000000 11.203125 -5.640625q4.078125 -5.640625 4.078125 -15.546875" />
          <path
             id="c_f05dd90d41f04bb96ef1ca503cc2044b"
             d="M30.609375 -48.390625q-7.218750 0.000000 -11.421875 5.640625q-4.203125 5.640625 -4.203125 15.453125q0.000000 9.812500 4.171875 15.453125q4.187500 5.640625 11.453125 5.640625q7.187500 0.000000 11.375000 -5.656250q4.203125 -5.671875 4.203125 -15.437500q0.000000 -9.718750 -4.203125 -15.406250q-4.187500 -5.687500 -11.375000 -5.687500M30.609375 -56.000000q11.718750 0.000000 18.406250 7.625000q6.703125 7.609375 6.703125 21.078125q0.000000 13.421875 -6.703125 21.078125q-6.687500 7.640625 -18.406250 7.640625q-11.765625 0.000000 -18.437500 -7.640625q-6.656250 -7.656250 -6.656250 -21.078125q0.000000 -13.468750 6.656250 -21.078125q6.671875 -7.625000 18.437500 -7.625000" />
          <path
             id="c_d41d8cd98f00b204e9800998ecf8427e"
             d="" />
          <path
             id="c_1a1d9ef1e4ddee695bd67a282879f099"
             d="M8.593750 -75.984375l20.703125 0.000000l0.000000 6.984375l-11.718750 0.000000l0.000000 75.203125l11.718750 0.000000l0.000000 6.984375l-20.703125 0.000000z" />
          <path
             id="c_8e0810ad13fe20a2a87a2619799b154d"
             d="M44.281250 -53.078125l0.000000 8.500000q-3.796875 -1.953125 -7.906250 -2.921875q-4.093750 -0.984375 -8.500000 -0.984375q-6.687500 0.000000 -10.031250 2.046875q-3.343750 2.046875 -3.343750 6.156250q0.000000 3.125000 2.390625 4.906250q2.390625 1.781250 9.625000 3.390625l3.078125 0.687500q9.562500 2.046875 13.593750 5.781250q4.031250 3.734375 4.031250 10.421875q0.000000 7.625000 -6.031250 12.078125q-6.031250 4.437500 -16.578125 4.437500q-4.390625 0.000000 -9.156250 -0.859375q-4.765625 -0.859375 -10.031250 -2.562500l0.000000 -9.281250q4.984375 2.593750 9.812500 3.890625q4.828125 1.281250 9.578125 1.281250q6.343750 0.000000 9.750000 -2.171875q3.421875 -2.171875 3.421875 -6.125000q0.000000 -3.656250 -2.468750 -5.609375q-2.453125 -1.953125 -10.812500 -3.765625l-3.125000 -0.734375q-8.343750 -1.750000 -12.062500 -5.390625q-3.703125 -3.640625 -3.703125 -9.984375q0.000000 -7.718750 5.468750 -11.906250q5.468750 -4.203125 15.531250 -4.203125q4.968750 0.000000 9.359375 0.734375q4.406250 0.718750 8.109375 2.187500" />
          <path
             id="c_83c92fcf7184248154f741f54a0382f5"
             d="M11.718750 -12.406250l10.296875 0.000000l0.000000 8.406250l-8.000000 15.625000l-6.296875 0.000000l4.000000 -15.625000z" />
          <path
             id="c_01d93a582460e35a7945ca50d148ffeb"
             d="M34.281250 -27.484375q-10.890625 0.000000 -15.093750 2.484375q-4.203125 2.484375 -4.203125 8.500000q0.000000 4.781250 3.156250 7.593750q3.156250 2.796875 8.562500 2.796875q7.484375 0.000000 12.000000 -5.296875q4.515625 -5.296875 4.515625 -14.078125l0.000000 -2.000000zM52.203125 -31.203125l0.000000 31.203125l-8.984375 0.000000l0.000000 -8.296875q-3.078125 4.968750 -7.671875 7.343750q-4.593750 2.375000 -11.234375 2.375000q-8.390625 0.000000 -13.359375 -4.718750q-4.953125 -4.718750 -4.953125 -12.625000q0.000000 -9.218750 6.171875 -13.906250q6.187500 -4.687500 18.437500 -4.687500l12.609375 0.000000l0.000000 -0.890625q0.000000 -6.203125 -4.078125 -9.593750q-4.078125 -3.390625 -11.453125 -3.390625q-4.687500 0.000000 -9.140625 1.125000q-4.437500 1.125000 -8.531250 3.375000l0.000000 -8.312500q4.921875 -1.906250 9.562500 -2.843750q4.640625 -0.953125 9.031250 -0.953125q11.875000 0.000000 17.734375 6.156250q5.859375 6.140625 5.859375 18.640625" />
          <path
             id="c_a7004dba24182736d44842db8efdc880"
             d="M54.890625 -33.015625l0.000000 33.015625l-8.984375 0.000000l0.000000 -32.718750q0.000000 -7.765625 -3.031250 -11.609375q-3.031250 -3.859375 -9.078125 -3.859375q-7.281250 0.000000 -11.484375 4.640625q-4.203125 4.625000 -4.203125 12.640625l0.000000 30.906250l-9.031250 0.000000l0.000000 -54.687500l9.031250 0.000000l0.000000 8.500000q3.234375 -4.937500 7.593750 -7.375000q4.375000 -2.437500 10.093750 -2.437500q9.421875 0.000000 14.250000 5.828125q4.843750 5.828125 4.843750 17.156250M32.187500 -66.890625l-2.796875 -2.687500q-1.062500 -0.984375 -1.875000 -1.437500q-0.796875 -0.468750 -1.437500 -0.468750q-1.859375 0.000000 -2.734375 1.781250q-0.875000 1.781250 -0.984375 5.781250l-6.093750 0.000000q0.093750 -6.593750 2.578125 -10.171875q2.500000 -3.593750 6.937500 -3.593750q1.859375 0.000000 3.421875 0.687500q1.562500 0.687500 3.375000 2.296875l2.781250 2.687500q1.062500 0.968750 1.875000 1.437500q0.812500 0.453125 1.437500 0.453125q1.859375 0.000000 2.734375 -1.781250q0.875000 -1.781250 0.984375 -5.781250l6.093750 0.000000q-0.093750 6.593750 -2.593750 10.187500q-2.484375 3.578125 -6.921875 3.578125q-1.859375 0.000000 -3.421875 -0.671875q-1.562500 -0.687500 -3.359375 -2.296875" />
          <path
             id="c_ed3e21196fb739f392806f09ca0594ef"
             d="M10.687500 -12.406250l10.312500 0.000000l0.000000 12.406250l-10.312500 0.000000z" />
          <path
             id="c_5bcf09947f6bf611091602c6fea1d302"
             d="M30.421875 -75.984375l0.000000 89.171875l-20.703125 0.000000l0.000000 -6.984375l11.671875 0.000000l0.000000 -75.203125l-11.671875 0.000000l0.000000 -6.984375z" />
        </defs>
        <g
           style="fill: #000000; opacity: 1.000000"
           transform="translate(223.645312,416.206250)scale(0.120000)"
           id="g167">
          <use
             xlink:href="#c_9e4b30cbdf32072672ded72e9074c4c9"
             id="use169" />
          <use
             xlink:href="#c_6a63bda47b2f3da1cec6aadd80692cfe"
             x="57.958984"
             id="use171" />
          <use
             xlink:href="#c_0bce5afba2dc6b9024b26277c38ad8e8"
             x="85.742187"
             id="use173" />
          <use
             xlink:href="#c_4653c6dfde66c7610eae0911760d3490"
             x="147.265625"
             id="use175" />
          <use
             xlink:href="#c_f15a64fcd463ef4629c48bab42cde24c"
             x="244.677734"
             id="use177" />
          <use
             xlink:href="#c_f05dd90d41f04bb96ef1ca503cc2044b"
             x="308.154297"
             id="use179" />
          <use
             xlink:href="#c_d41d8cd98f00b204e9800998ecf8427e"
             x="369.335937"
             id="use181" />
          <use
             xlink:href="#c_1a1d9ef1e4ddee695bd67a282879f099"
             x="401.123047"
             id="use183" />
          <use
             xlink:href="#c_4653c6dfde66c7610eae0911760d3490"
             x="440.136719"
             id="use185" />
          <use
             xlink:href="#c_0bce5afba2dc6b9024b26277c38ad8e8"
             x="537.548828"
             id="use187" />
          <use
             xlink:href="#c_8e0810ad13fe20a2a87a2619799b154d"
             x="599.072266"
             id="use189" />
          <use
             xlink:href="#c_0bce5afba2dc6b9024b26277c38ad8e8"
             x="651.171875"
             id="use191" />
          <use
             xlink:href="#c_8e0810ad13fe20a2a87a2619799b154d"
             x="712.695312"
             id="use193" />
          <use
             xlink:href="#c_83c92fcf7184248154f741f54a0382f5"
             x="764.794922"
             id="use195" />
          <use
             xlink:href="#c_d41d8cd98f00b204e9800998ecf8427e"
             x="796.582031"
             id="use197" />
          <use
             xlink:href="#c_01d93a582460e35a7945ca50d148ffeb"
             x="828.369141"
             id="use199" />
          <use
             xlink:href="#c_a7004dba24182736d44842db8efdc880"
             x="889.648438"
             id="use201" />
          <use
             xlink:href="#c_f05dd90d41f04bb96ef1ca503cc2044b"
             x="953.027344"
             id="use203" />
          <use
             xlink:href="#c_8e0810ad13fe20a2a87a2619799b154d"
             x="1014.208984"
             id="use205" />
          <use
             xlink:href="#c_ed3e21196fb739f392806f09ca0594ef"
             x="1066.308594"
             id="use207" />
          <use
             xlink:href="#c_ed3e21196fb739f392806f09ca0594ef"
             x="1098.095703"
             id="use209" />
          <use
             xlink:href="#c_ed3e21196fb739f392806f09ca0594ef"
             x="1129.882812"
             id="use211" />
          <use
             xlink:href="#c_5bcf09947f6bf611091602c6fea1d302"
             x="1161.669922"
             id="use213" />
        </g>
      </g>
      <g
         id="matplotlib.axis2">
        <g
           id="ytick1">
          <g
             id="line2d16">
            <defs
               id="defs218">
              <path
                 id="m3400efa6b1638b3fea9e19e898273957"
                 d="M0.000000 0.000000L4.000000 0.000000" />
            </defs>
            <g
               id="g221">
              <use
                 style="fill: none; stroke: #000000; stroke-width: 0.500000; stroke-linejoin: miter; stroke-linecap: butt;  opacity: 1.000000"
                 xlink:href="#m3400efa6b1638b3fea9e19e898273957"
                 x="72.000000"
                 y="388.800000"
                 id="use223" />
            </g>
          </g>
          <g
             id="line2d17">
            <defs
               id="defs226">
              <path
                 id="m20b58b2501143cb5e0a5e8f1ef6f1643"
                 d="M0.000000 0.000000L-4.000000 0.000000" />
            </defs>
            <g
               id="g229">
              <use
                 style="fill: none; stroke: #000000; stroke-width: 0.500000; stroke-linejoin: miter; stroke-linecap: butt;  opacity: 1.000000"
                 xlink:href="#m20b58b2501143cb5e0a5e8f1ef6f1643"
                 x="518.400000"
                 y="388.800000"
                 id="use231" />
            </g>
          </g>
          <g
             style="fill: #000000; opacity: 1.000000"
             transform="translate(50.500000,393.167188)scale(0.120000)"
             id="g233">
            <use
               xlink:href="#c_7a2040fe3b94fcd41d0a72c84e93b115"
               id="use235" />
            <use
               xlink:href="#c_ed3e21196fb739f392806f09ca0594ef"
               x="63.623047"
               id="use237" />
            <use
               xlink:href="#c_7a2040fe3b94fcd41d0a72c84e93b115"
               x="95.410156"
               id="use239" />
          </g>
        </g>
        <g
           id="ytick2">
          <g
             id="line2d18">
            <g
               id="g243">
              <use
                 style="fill: none; stroke: #000000; stroke-width: 0.500000; stroke-linejoin: miter; stroke-linecap: butt;  opacity: 1.000000"
                 xlink:href="#m3400efa6b1638b3fea9e19e898273957"
                 x="72.000000"
                 y="319.680000"
                 id="use245" />
            </g>
          </g>
          <g
             id="line2d19">
            <g
               id="g248">
              <use
                 style="fill: none; stroke: #000000; stroke-width: 0.500000; stroke-linejoin: miter; stroke-linecap: butt;  opacity: 1.000000"
                 xlink:href="#m20b58b2501143cb5e0a5e8f1ef6f1643"
                 x="518.400000"
                 y="319.680000"
                 id="use250" />
            </g>
          </g>
          <g
             style="fill: #000000; opacity: 1.000000"
             transform="translate(50.906250,324.047188)scale(0.120000)"
             id="g252">
            <use
               xlink:href="#c_7a2040fe3b94fcd41d0a72c84e93b115"
               id="use254" />
            <use
               xlink:href="#c_ed3e21196fb739f392806f09ca0594ef"
               x="63.623047"
               id="use256" />
            <use
               xlink:href="#c_ed3f3ed3ebfbd18bcb9c012009a68ad1"
               x="95.410156"
               id="use258" />
          </g>
        </g>
        <g
           id="ytick3">
          <g
             id="line2d20">
            <g
               id="g262">
              <use
                 style="fill: none; stroke: #000000; stroke-width: 0.500000; stroke-linejoin: miter; stroke-linecap: butt;  opacity: 1.000000"
                 xlink:href="#m3400efa6b1638b3fea9e19e898273957"
                 x="72.000000"
                 y="250.560000"
                 id="use264" />
            </g>
          </g>
          <g
             id="line2d21">
            <g
               id="g267">
              <use
                 style="fill: none; stroke: #000000; stroke-width: 0.500000; stroke-linejoin: miter; stroke-linecap: butt;  opacity: 1.000000"
                 xlink:href="#m20b58b2501143cb5e0a5e8f1ef6f1643"
                 x="518.400000"
                 y="250.560000"
                 id="use269" />
            </g>
          </g>
          <g
             style="fill: #000000; opacity: 1.000000"
             transform="translate(50.375000,254.927188)scale(0.120000)"
             id="g271">
            <use
               xlink:href="#c_7a2040fe3b94fcd41d0a72c84e93b115"
               id="use273" />
            <use
               xlink:href="#c_ed3e21196fb739f392806f09ca0594ef"
               x="63.623047"
               id="use275" />
            <use
               xlink:href="#c_a0416418d96557a09b8c1332d34883ba"
               x="95.410156"
               id="use277" />
          </g>
        </g>
        <g
           id="ytick4">
          <g
             id="line2d22">
            <g
               id="g281">
              <use
                 style="fill: none; stroke: #000000; stroke-width: 0.500000; stroke-linejoin: miter; stroke-linecap: butt;  opacity: 1.000000"
                 xlink:href="#m3400efa6b1638b3fea9e19e898273957"
                 x="72.000000"
                 y="181.440000"
                 id="use283" />
            </g>
          </g>
          <g
             id="line2d23">
            <g
               id="g286">
              <use
                 style="fill: none; stroke: #000000; stroke-width: 0.500000; stroke-linejoin: miter; stroke-linecap: butt;  opacity: 1.000000"
                 xlink:href="#m20b58b2501143cb5e0a5e8f1ef6f1643"
                 x="518.400000"
                 y="181.440000"
                 id="use288" />
            </g>
          </g>
          <g
             style="fill: #000000; opacity: 1.000000"
             transform="translate(50.468750,185.807187)scale(0.120000)"
             id="g290">
            <use
               xlink:href="#c_7a2040fe3b94fcd41d0a72c84e93b115"
               id="use292" />
            <use
               xlink:href="#c_ed3e21196fb739f392806f09ca0594ef"
               x="63.623047"
               id="use294" />
            <use
               xlink:href="#c_cc8d6d580d1b10c8632f7a42cd53db8a"
               x="95.410156"
               id="use296" />
          </g>
        </g>
        <g
           id="ytick5">
          <g
             id="line2d24">
            <g
               id="g300">
              <use
                 style="fill: none; stroke: #000000; stroke-width: 0.500000; stroke-linejoin: miter; stroke-linecap: butt;  opacity: 1.000000"
                 xlink:href="#m3400efa6b1638b3fea9e19e898273957"
                 x="72.000000"
                 y="112.320000"
                 id="use302" />
            </g>
          </g>
          <g
             id="line2d25">
            <g
               id="g305">
              <use
                 style="fill: none; stroke: #000000; stroke-width: 0.500000; stroke-linejoin: miter; stroke-linecap: butt;  opacity: 1.000000"
                 xlink:href="#m20b58b2501143cb5e0a5e8f1ef6f1643"
                 x="518.400000"
                 y="112.320000"
                 id="use307" />
            </g>
          </g>
          <g
             style="fill: #000000; opacity: 1.000000"
             transform="translate(50.531250,116.687187)scale(0.120000)"
             id="g309">
            <use
               xlink:href="#c_7a2040fe3b94fcd41d0a72c84e93b115"
               id="use311" />
            <use
               xlink:href="#c_ed3e21196fb739f392806f09ca0594ef"
               x="63.623047"
               id="use313" />
            <use
               xlink:href="#c_bef35738d52871942e50b9de9b122bab"
               x="95.410156"
               id="use315" />
          </g>
        </g>
        <g
           id="ytick6">
          <g
             id="line2d26">
            <g
               id="g319">
              <use
                 style="fill: none; stroke: #000000; stroke-width: 0.500000; stroke-linejoin: miter; stroke-linecap: butt;  opacity: 1.000000"
                 xlink:href="#m3400efa6b1638b3fea9e19e898273957"
                 x="72.000000"
                 y="43.200000"
                 id="use321" />
            </g>
          </g>
          <g
             id="line2d27">
            <g
               id="g324">
              <use
                 style="fill: none; stroke: #000000; stroke-width: 0.500000; stroke-linejoin: miter; stroke-linecap: butt;  opacity: 1.000000"
                 xlink:href="#m20b58b2501143cb5e0a5e8f1ef6f1643"
                 x="518.400000"
                 y="43.200000"
                 id="use326" />
            </g>
          </g>
          <g
             style="fill: #000000; opacity: 1.000000"
             transform="translate(51.015625,47.567187)scale(0.120000)"
             id="g328">
            <use
               xlink:href="#c_42baa63129a918535c52adb20d687ea7"
               id="use330" />
            <use
               xlink:href="#c_ed3e21196fb739f392806f09ca0594ef"
               x="63.623047"
               id="use332" />
            <use
               xlink:href="#c_7a2040fe3b94fcd41d0a72c84e93b115"
               x="95.410156"
               id="use334" />
          </g>
        </g>
        <defs
           id="defs336">
          <path
             id="c_4c6532c564269b2c70b230c2e45c01e4"
             d="M44.390625 -34.187500q3.171875 1.078125 6.171875 4.593750q3.000000 3.515625 6.031250 9.671875l10.015625 19.921875l-10.609375 0.000000l-9.312500 -18.703125q-3.625000 -7.328125 -7.015625 -9.718750q-3.390625 -2.390625 -9.250000 -2.390625l-10.750000 0.000000l0.000000 30.812500l-9.859375 0.000000l0.000000 -72.906250l22.265625 0.000000q12.500000 0.000000 18.656250 5.234375q6.156250 5.218750 6.156250 15.765625q0.000000 6.890625 -3.203125 11.437500q-3.203125 4.531250 -9.296875 6.281250M19.671875 -64.796875l0.000000 25.875000l12.406250 0.000000q7.125000 0.000000 10.765625 -3.296875q3.640625 -3.296875 3.640625 -9.687500q0.000000 -6.390625 -3.640625 -9.640625q-3.640625 -3.250000 -10.765625 -3.250000z" />
          <path
             id="c_c438d87e693443c2861ebd6359e6491e"
             d="M8.500000 -21.578125l0.000000 -33.109375l8.984375 0.000000l0.000000 32.765625q0.000000 7.765625 3.015625 11.656250q3.031250 3.875000 9.093750 3.875000q7.265625 0.000000 11.484375 -4.640625q4.234375 -4.640625 4.234375 -12.656250l0.000000 -31.000000l8.984375 0.000000l0.000000 54.687500l-8.984375 0.000000l0.000000 -8.406250q-3.265625 4.984375 -7.593750 7.406250q-4.312500 2.421875 -10.031250 2.421875q-9.421875 0.000000 -14.312500 -5.859375q-4.875000 -5.859375 -4.875000 -17.140625" />
          <path
             id="c_5099edb83619131346ae654950954dea"
             d="M9.421875 -75.984375l8.984375 0.000000l0.000000 75.984375l-8.984375 0.000000z" />
          <path
             id="c_0f8c41144cfbf448378cb6fd1cc8e549"
             d="M18.312500 -70.218750l0.000000 15.531250l18.500000 0.000000l0.000000 6.984375l-18.500000 0.000000l0.000000 29.687500q0.000000 6.687500 1.828125 8.593750q1.828125 1.906250 7.453125 1.906250l9.218750 0.000000l0.000000 7.515625l-9.218750 0.000000q-10.406250 0.000000 -14.359375 -3.875000q-3.953125 -3.890625 -3.953125 -14.140625l0.000000 -29.687500l-6.593750 0.000000l0.000000 -6.984375l6.593750 0.000000l0.000000 -15.531250z" />
          <path
             id="c_d821beae607506e87470f334d9ff47af"
             d="M45.406250 -46.390625l0.000000 -29.593750l8.984375 0.000000l0.000000 75.984375l-8.984375 0.000000l0.000000 -8.203125q-2.828125 4.875000 -7.156250 7.250000q-4.312500 2.375000 -10.375000 2.375000q-9.906250 0.000000 -16.140625 -7.906250q-6.218750 -7.921875 -6.218750 -20.812500q0.000000 -12.890625 6.218750 -20.796875q6.234375 -7.906250 16.140625 -7.906250q6.062500 0.000000 10.375000 2.375000q4.328125 2.359375 7.156250 7.234375M14.796875 -27.296875q0.000000 9.906250 4.078125 15.546875q4.078125 5.640625 11.203125 5.640625q7.125000 0.000000 11.218750 -5.640625q4.109375 -5.640625 4.109375 -15.546875q0.000000 -9.906250 -4.109375 -15.546875q-4.093750 -5.640625 -11.218750 -5.640625q-7.125000 0.000000 -11.203125 5.640625q-4.078125 5.640625 -4.078125 15.546875" />
        </defs>
        <g
           style="fill: #000000; opacity: 1.000000"
           transform="translate(45.375000,244.640625)rotate(-90.0)scale(0.120000)"
           id="g343">
          <use
             xlink:href="#c_4c6532c564269b2c70b230c2e45c01e4"
             id="use345" />
          <use
             xlink:href="#c_0bce5afba2dc6b9024b26277c38ad8e8"
             x="64.982422"
             id="use347" />
          <use
             xlink:href="#c_8e0810ad13fe20a2a87a2619799b154d"
             x="126.505859"
             id="use349" />
          <use
             xlink:href="#c_c438d87e693443c2861ebd6359e6491e"
             x="178.605469"
             id="use351" />
          <use
             xlink:href="#c_5099edb83619131346ae654950954dea"
             x="241.984375"
             id="use353" />
          <use
             xlink:href="#c_0f8c41144cfbf448378cb6fd1cc8e549"
             x="269.767578"
             id="use355" />
          <use
             xlink:href="#c_01d93a582460e35a7945ca50d148ffeb"
             x="308.976563"
             id="use357" />
          <use
             xlink:href="#c_d821beae607506e87470f334d9ff47af"
             x="370.255859"
             id="use359" />
          <use
             xlink:href="#c_f05dd90d41f04bb96ef1ca503cc2044b"
             x="433.732422"
             id="use361" />
        </g>
      </g>
      <path
         style="fill: none; stroke: #000000; stroke-width: 1.000000; stroke-linejoin: miter; stroke-linecap: square;  opacity: 1.000000"
         d="M72.000000 388.800000L518.400000 388.800000L518.400000 43.200000 L72.000000 43.200000L72.000000 388.800000"
         id="path363" />
    </g>
  </g>
  <text
     xml:space="preserve"
     style="font-size:17.60000038px;font-style:normal;font-variant:normal;font-weight:normal;font-stretch:normal;text-align:start;line-height:100%;writing-mode:lr-tb;text-anchor:start;fill:#000000;fill-opacity:1;stroke:none;stroke-width:1px;stroke-linecap:butt;stroke-linejoin:miter;stroke-opacity:1;font-family:Droid Sans;-inkscape-font-specification:Droid Sans"
     x="130.23108"
     y="81.466133"
     id="text2743"
     sodipodi:linespacing="100%"><tspan
       sodipodi:role="line"
       id="tspan2745"
       x="130.23108"
       y="81.466133">Asíntota</tspan></text>
  <path
     style="fill:none;fill-rule:evenodd;stroke:#000000;stroke-width:1px;stroke-linecap:butt;stroke-linejoin:miter;stroke-opacity:1;marker-end:url(#Arrow1Lend)"
     d="M 200.79681,74.581673 L 260.46215,48.191235"
     id="path2747" />
  <text
     xml:space="preserve"
     style="font-size:17.60000038px;font-style:normal;font-variant:normal;font-weight:normal;font-stretch:normal;text-align:start;line-height:100%;writing-mode:lr-tb;text-anchor:start;fill:#000000;fill-opacity:1;stroke:none;stroke-width:1px;stroke-linecap:butt;stroke-linejoin:miter;stroke-opacity:1;font-family:Droid Sans;-inkscape-font-specification:Droid Sans"
     x="403.3172"
     y="104.25587"
     id="text4337"
     sodipodi:linespacing="100%"><tspan
       sodipodi:role="line"
       id="tspan4339"
       x="403.3172"
       y="104.25587">Física</tspan></text>
  <path
     style="fill:none;fill-rule:evenodd;stroke:#000000;stroke-width:1px;stroke-linecap:butt;stroke-linejoin:miter;stroke-opacity:1;marker-start:none;marker-end:url(#Arrow1Lend)"
     d="M 452,97.6 L 574.4,76.8"
     id="path4341"
     sodipodi:nodetypes="cc" />
  <path
     style="fill:none;fill-rule:evenodd;stroke:#000000;stroke-width:1px;stroke-linecap:butt;stroke-linejoin:miter;stroke-opacity:1"
     d="M 265.6,388 L 265.6,42.4"
     id="path5888" />
  <text
     xml:space="preserve"
     style="font-size:17.60000038px;font-style:normal;font-variant:normal;font-weight:normal;font-stretch:normal;text-align:start;line-height:100%;writing-mode:lr-tb;text-anchor:start;fill:#000000;fill-opacity:1;stroke:none;stroke-width:1px;stroke-linecap:butt;stroke-linejoin:miter;stroke-opacity:1;font-family:Droid Sans;-inkscape-font-specification:Droid Sans"
     x="-328.90546"
     y="283.50272"
     id="text5890"
     sodipodi:linespacing="100%"
     transform="matrix(0,-1,1,0,0,0)"><tspan
       sodipodi:role="line"
       id="tspan5892"
       x="-328.90546"
       y="283.50272">Entrega</tspan></text>
  <text
     xml:space="preserve"
     style="font-size:17.60000038px;font-style:normal;font-variant:normal;font-weight:normal;font-stretch:normal;text-align:start;line-height:100%;writing-mode:lr-tb;text-anchor:start;fill:#000000;fill-opacity:1;stroke:none;stroke-width:1px;stroke-linecap:butt;stroke-linejoin:miter;stroke-opacity:1;font-family:Droid Sans;-inkscape-font-specification:Droid Sans"
     x="169.71719"
     y="333.05585"
     id="text5894"
     sodipodi:linespacing="100%"><tspan
       sodipodi:role="line"
       id="tspan5896"
       x="169.71719"
       y="333.05585" /></text>
  <text
     xml:space="preserve"
     style="font-size:17.60000038px;font-style:normal;font-variant:normal;font-weight:normal;font-stretch:normal;text-align:start;line-height:100%;writing-mode:lr-tb;text-anchor:start;fill:#000000;fill-opacity:1;stroke:none;stroke-width:1px;stroke-linecap:butt;stroke-linejoin:miter;stroke-opacity:1;font-family:Droid Sans;-inkscape-font-specification:Droid Sans"
     x="304.91718"
     y="171.45586"
     id="text5898"
     sodipodi:linespacing="100%"><tspan
       sodipodi:role="line"
       id="tspan5900"
       x="304.91718"
       y="171.45586">Ingeniería</tspan></text>
  <path
     style="fill:none;fill-rule:evenodd;stroke:#000000;stroke-width:1px;stroke-linecap:butt;stroke-linejoin:miter;marker-end:url(#Arrow1Lend);stroke-opacity:1"
     d="M 334.96733,153.19522 L 267.43267,94.004781"
     id="path5902"
     sodipodi:nodetypes="cc" />
  <path
     style="fill:none;fill-rule:evenodd;stroke:#ff0000;stroke-width:4;stroke-linecap:butt;stroke-linejoin:miter;stroke-opacity:1;stroke-miterlimit:4;stroke-dasharray:none"
     d="M 265.6,43.2 L 265.6,91.2"
     id="path5904" />
</svg>
